<svg xmlns="http://www.w3.org/2000/svg" xmlns:xlink="http://www.w3.org/1999/xlink" width="40" zoomAndPan="magnify" viewBox="0 0 30 30.000001" height="40" preserveAspectRatio="xMidYMid meet" version="1.0"><defs><clipPath id="026feb9300"><path d="M 13 27 L 17 27 L 17 29.03125 L 13 29.03125 Z M 13 27 " clip-rule="nonzero"/></clipPath><clipPath id="3b7800313c"><path d="M 24 12 L 27.429688 12 L 27.429688 13 L 24 13 Z M 24 12 " clip-rule="nonzero"/></clipPath><clipPath id="4af5365e49"><path d="M 2.753906 12 L 6 12 L 6 13 L 2.753906 13 Z M 2.753906 12 " clip-rule="nonzero"/></clipPath></defs><path fill="#000000" d="M 15.011719 4.160156 C 10.589844 4.160156 6.992188 7.757812 6.992188 12.175781 C 6.992188 14.753906 7.738281 15.703125 8.601562 16.800781 C 9.621094 18.097656 10.773438 19.570312 10.773438 23.992188 C 10.773438 25.4375 11.964844 27.203125 13.355469 27.203125 L 16.664062 27.203125 C 18.054688 27.203125 19.246094 25.4375 19.246094 23.992188 C 19.246094 19.570312 20.402344 18.097656 21.421875 16.800781 C 22.28125 15.703125 23.027344 14.753906 23.027344 12.175781 C 23.027344 7.757812 19.429688 4.160156 15.011719 4.160156 Z M 16.664062 27.710938 L 13.355469 27.710938 C 11.644531 27.710938 10.265625 25.675781 10.265625 23.992188 C 10.265625 19.746094 9.214844 18.40625 8.199219 17.117188 C 7.316406 15.992188 6.484375 14.929688 6.484375 12.175781 C 6.484375 7.476562 10.3125 3.652344 15.011719 3.652344 C 19.710938 3.652344 23.535156 7.476562 23.535156 12.175781 C 23.535156 14.929688 22.703125 15.992188 21.820312 17.117188 C 20.804688 18.40625 19.753906 19.746094 19.753906 23.992188 C 19.753906 25.675781 18.378906 27.710938 16.664062 27.710938 Z M 16.664062 27.710938 " fill-opacity="1" fill-rule="nonzero"/><g clip-path="url(#026feb9300)"><path fill="#000000" d="M 15.011719 29.007812 C 14.15625 29.007812 13.460938 28.3125 13.460938 27.457031 C 13.460938 27.316406 13.574219 27.203125 13.71875 27.203125 C 13.855469 27.203125 13.96875 27.316406 13.96875 27.457031 C 13.96875 28.03125 14.4375 28.496094 15.011719 28.496094 C 15.585938 28.496094 16.050781 28.03125 16.050781 27.457031 C 16.050781 27.316406 16.164062 27.203125 16.304688 27.203125 C 16.445312 27.203125 16.558594 27.316406 16.558594 27.457031 C 16.558594 28.3125 15.863281 29.007812 15.011719 29.007812 Z M 15.011719 29.007812 " fill-opacity="1" fill-rule="nonzero"/></g><path fill="#000000" d="M 19.742188 21.183594 L 10.277344 21.183594 C 10.136719 21.183594 10.023438 21.070312 10.023438 20.929688 C 10.023438 20.789062 10.136719 20.675781 10.277344 20.675781 L 19.742188 20.675781 C 19.882812 20.675781 19.996094 20.789062 19.996094 20.929688 C 19.996094 21.070312 19.882812 21.183594 19.742188 21.183594 Z M 19.742188 21.183594 " fill-opacity="1" fill-rule="nonzero"/><path fill="#000000" d="M 19.535156 22.9375 L 10.480469 22.9375 C 10.34375 22.9375 10.230469 22.824219 10.230469 22.683594 C 10.230469 22.542969 10.34375 22.429688 10.480469 22.429688 L 19.535156 22.429688 C 19.679688 22.429688 19.792969 22.542969 19.792969 22.683594 C 19.792969 22.824219 19.679688 22.9375 19.535156 22.9375 Z M 19.535156 22.9375 " fill-opacity="1" fill-rule="nonzero"/><path fill="#000000" d="M 19.46875 24.691406 L 10.554688 24.691406 C 10.414062 24.691406 10.300781 24.578125 10.300781 24.4375 C 10.300781 24.296875 10.414062 24.183594 10.554688 24.183594 L 19.46875 24.183594 C 19.609375 24.183594 19.722656 24.296875 19.722656 24.4375 C 19.722656 24.578125 19.609375 24.691406 19.46875 24.691406 Z M 19.46875 24.691406 " fill-opacity="1" fill-rule="nonzero"/><path fill="#000000" d="M 18.753906 26.445312 L 11.265625 26.445312 C 11.128906 26.445312 11.011719 26.332031 11.011719 26.191406 C 11.011719 26.050781 11.128906 25.9375 11.265625 25.9375 L 18.753906 25.9375 C 18.894531 25.9375 19.007812 26.050781 19.007812 26.191406 C 19.007812 26.332031 18.894531 26.445312 18.753906 26.445312 Z M 18.753906 26.445312 " fill-opacity="1" fill-rule="nonzero"/><path fill="#000000" d="M 16.085938 21.183594 C 15.992188 21.183594 15.898438 21.128906 15.855469 21.035156 C 15.839844 21 15.464844 20.164062 15.554688 18.824219 C 15.621094 17.777344 16 16.230469 17.324219 14.484375 C 16.582031 14.703125 15.6875 14.726562 14.96875 14.128906 C 14.269531 14.710938 13.414062 14.703125 12.707031 14.496094 C 14.015625 16.238281 14.371094 17.78125 14.425781 18.828125 C 14.492188 20.167969 14.09375 21.003906 14.074219 21.039062 C 14.015625 21.167969 13.863281 21.21875 13.734375 21.15625 C 13.609375 21.097656 13.554688 20.945312 13.621094 20.816406 C 13.621094 20.808594 13.984375 20.042969 13.914062 18.820312 C 13.851562 17.691406 13.398438 15.929688 11.59375 13.953125 C 11.503906 13.855469 11.503906 13.710938 11.589844 13.613281 C 11.675781 13.515625 11.820312 13.5 11.929688 13.574219 C 11.996094 13.621094 13.660156 14.765625 14.785156 13.605469 C 14.832031 13.554688 14.898438 13.527344 14.96875 13.527344 C 15.035156 13.527344 15.101562 13.554688 15.148438 13.605469 C 16.28125 14.773438 18.078125 13.582031 18.097656 13.570312 C 18.203125 13.5 18.347656 13.515625 18.433594 13.613281 C 18.515625 13.710938 18.515625 13.855469 18.425781 13.953125 C 14.964844 17.746094 16.304688 20.792969 16.316406 20.824219 C 16.375 20.949219 16.320312 21.101562 16.195312 21.160156 C 16.160156 21.175781 16.121094 21.183594 16.085938 21.183594 Z M 16.085938 21.183594 " fill-opacity="1" fill-rule="nonzero"/><path fill="#000000" d="M 15.011719 2.859375 C 14.871094 2.859375 14.753906 2.746094 14.753906 2.605469 L 14.753906 0.261719 C 14.753906 0.121094 14.871094 0.0078125 15.011719 0.0078125 C 15.148438 0.0078125 15.261719 0.121094 15.261719 0.261719 L 15.261719 2.605469 C 15.261719 2.746094 15.148438 2.859375 15.011719 2.859375 Z M 15.011719 2.859375 " fill-opacity="1" fill-rule="nonzero"/><path fill="#000000" d="M 19.835938 4.152344 C 19.792969 4.152344 19.75 4.140625 19.707031 4.117188 C 19.585938 4.046875 19.542969 3.890625 19.617188 3.769531 L 20.789062 1.742188 C 20.855469 1.617188 21.011719 1.578125 21.136719 1.648438 C 21.257812 1.71875 21.300781 1.871094 21.226562 1.996094 L 20.054688 4.023438 C 20.007812 4.105469 19.921875 4.152344 19.835938 4.152344 Z M 19.835938 4.152344 " fill-opacity="1" fill-rule="nonzero"/><path fill="#000000" d="M 23.371094 7.683594 C 23.28125 7.683594 23.195312 7.636719 23.148438 7.558594 C 23.078125 7.433594 23.121094 7.28125 23.242188 7.210938 L 25.273438 6.039062 C 25.394531 5.96875 25.546875 6.007812 25.617188 6.128906 C 25.6875 6.253906 25.644531 6.40625 25.523438 6.476562 L 23.496094 7.648438 C 23.457031 7.671875 23.410156 7.683594 23.371094 7.683594 Z M 23.371094 7.683594 " fill-opacity="1" fill-rule="nonzero"/><g clip-path="url(#3b7800313c)"><path fill="#000000" d="M 27.003906 12.511719 L 24.660156 12.511719 C 24.519531 12.511719 24.40625 12.394531 24.40625 12.253906 C 24.40625 12.113281 24.519531 12 24.660156 12 L 27.003906 12 C 27.144531 12 27.257812 12.113281 27.257812 12.253906 C 27.257812 12.394531 27.144531 12.511719 27.003906 12.511719 Z M 27.003906 12.511719 " fill-opacity="1" fill-rule="nonzero"/></g><g clip-path="url(#4af5365e49)"><path fill="#000000" d="M 5.359375 12.511719 L 3.015625 12.511719 C 2.875 12.511719 2.761719 12.394531 2.761719 12.253906 C 2.761719 12.113281 2.875 12 3.015625 12 L 5.359375 12 C 5.5 12 5.613281 12.113281 5.613281 12.253906 C 5.613281 12.394531 5.5 12.511719 5.359375 12.511719 Z M 5.359375 12.511719 " fill-opacity="1" fill-rule="nonzero"/></g><path fill="#000000" d="M 6.652344 7.683594 C 6.609375 7.683594 6.566406 7.671875 6.523438 7.648438 L 4.492188 6.476562 C 4.371094 6.40625 4.332031 6.253906 4.402344 6.128906 C 4.472656 6.007812 4.628906 5.96875 4.75 6.039062 L 6.78125 7.210938 C 6.902344 7.28125 6.941406 7.433594 6.871094 7.558594 C 6.824219 7.636719 6.738281 7.683594 6.652344 7.683594 Z M 6.652344 7.683594 " fill-opacity="1" fill-rule="nonzero"/><path fill="#000000" d="M 10.183594 4.152344 C 10.097656 4.152344 10.011719 4.105469 9.964844 4.023438 L 8.792969 1.996094 C 8.722656 1.871094 8.765625 1.71875 8.886719 1.648438 C 9.007812 1.578125 9.160156 1.617188 9.234375 1.742188 L 10.40625 3.769531 C 10.472656 3.890625 10.433594 4.046875 10.3125 4.117188 C 10.269531 4.140625 10.230469 4.152344 10.183594 4.152344 Z M 10.183594 4.152344 " fill-opacity="1" fill-rule="nonzero"/><path fill="#ffd15c" d="M 15.011719 4.160156 C 10.589844 4.160156 6.992188 7.757812 6.992188 12.175781 C 6.992188 14.753906 7.738281 15.703125 8.601562 16.800781 C 9.308594 17.699219 10.078125 18.683594 10.484375 20.675781 L 13.675781 20.675781 C 13.777344 20.398438 13.964844 19.738281 13.914062 18.820312 C 13.851562 17.691406 13.398438 15.929688 11.59375 13.953125 C 11.503906 13.855469 11.503906 13.710938 11.589844 13.613281 C 11.675781 13.515625 11.820312 13.5 11.929688 13.574219 C 11.996094 13.621094 13.660156 14.765625 14.785156 13.605469 C 14.832031 13.554688 14.898438 13.527344 14.96875 13.527344 C 15.035156 13.527344 15.101562 13.554688 15.148438 13.605469 C 16.28125 14.773438 18.078125 13.582031 18.097656 13.570312 C 18.203125 13.5 18.347656 13.515625 18.433594 13.613281 C 18.515625 13.710938 18.515625 13.855469 18.425781 13.953125 C 15.394531 17.273438 16.042969 20.019531 16.261719 20.675781 L 19.535156 20.675781 C 19.941406 18.683594 20.714844 17.699219 21.421875 16.800781 C 22.28125 15.703125 23.027344 14.753906 23.027344 12.175781 C 23.027344 7.757812 19.429688 4.160156 15.011719 4.160156 Z M 15.011719 4.160156 " fill-opacity="1" fill-rule="evenodd"/><path fill="#ffd15c" d="M 14.96875 14.128906 C 14.269531 14.710938 13.414062 14.703125 12.707031 14.496094 C 14.015625 16.238281 14.371094 17.78125 14.425781 18.828125 C 14.464844 19.664062 14.328125 20.304688 14.210938 20.675781 L 15.730469 20.675781 C 15.625 20.304688 15.496094 19.664062 15.554688 18.824219 C 15.621094 17.777344 16 16.230469 17.324219 14.484375 C 16.582031 14.703125 15.6875 14.726562 14.96875 14.128906 Z M 14.96875 14.128906 " fill-opacity="1" fill-rule="evenodd"/><path fill="#969ea0" d="M 16.019531 27.710938 L 14 27.710938 C 14.113281 28.164062 14.523438 28.496094 15.011719 28.496094 C 15.496094 28.496094 15.90625 28.164062 16.019531 27.710938 Z M 16.019531 27.710938 " fill-opacity="1" fill-rule="evenodd"/><path fill="#bac2c6" d="M 13.71875 27.203125 L 16.664062 27.203125 C 17.238281 27.203125 17.78125 26.902344 18.214844 26.445312 L 11.804688 26.445312 C 12.242188 26.902344 12.78125 27.203125 13.355469 27.203125 Z M 13.71875 27.203125 " fill-opacity="1" fill-rule="evenodd"/><path fill="#bac2c6" d="M 11.402344 25.9375 L 18.621094 25.9375 C 18.871094 25.558594 19.058594 25.125 19.160156 24.691406 L 10.859375 24.691406 C 10.960938 25.125 11.148438 25.558594 11.402344 25.9375 Z M 11.402344 25.9375 " fill-opacity="1" fill-rule="evenodd"/><path fill="#bac2c6" d="M 10.78125 24.183594 L 19.238281 24.183594 C 19.246094 24.121094 19.246094 24.054688 19.246094 23.992188 C 19.246094 23.621094 19.253906 23.269531 19.269531 22.9375 L 10.75 22.9375 C 10.765625 23.269531 10.773438 23.621094 10.773438 23.992188 C 10.773438 24.054688 10.777344 24.121094 10.78125 24.183594 Z M 10.78125 24.183594 " fill-opacity="1" fill-rule="evenodd"/><path fill="#bac2c6" d="M 10.71875 22.429688 L 19.300781 22.429688 C 19.335938 21.976562 19.382812 21.5625 19.441406 21.183594 L 16.105469 21.183594 C 16.097656 21.183594 16.09375 21.183594 16.085938 21.183594 C 16.078125 21.183594 16.074219 21.183594 16.066406 21.183594 L 13.855469 21.183594 C 13.851562 21.183594 13.84375 21.183594 13.835938 21.183594 L 10.578125 21.183594 C 10.636719 21.5625 10.6875 21.976562 10.71875 22.429688 Z M 10.71875 22.429688 " fill-opacity="1" fill-rule="evenodd"/></svg>