<svg xmlns="http://www.w3.org/2000/svg" version="1.0" viewBox="0 0 1444.5 376.5"><defs><clipPath id="a"><path d="M1350.484 0h92.809v376h-92.809Zm0 0"/></clipPath><clipPath id="b"><path d="M83 0h1279v376H83Zm0 0"/></clipPath><clipPath id="c"><path d="M.707 0h84.336v376H.707Zm0 0"/></clipPath><clipPath id="d"><path d="M1007.926 188h49.433v47h-49.433Zm0 0"/></clipPath><clipPath id="e"><path d="M982.777 97.566h99.922v27.645h-99.922Zm0 0"/></clipPath><clipPath id="f"><path d="M396.535 143h77.149v54.66h-77.149Zm0 0"/></clipPath><clipPath id="g"><path d="M1180 338.402h25v23.965h-25Zm0 0"/></clipPath><clipPath id="h"><path d="M216 85h18.21v40.332H216Zm0 0"/></clipPath><clipPath id="i"><path d="M215.484 59H217v29h-1.516Zm0 0"/></clipPath><clipPath id="j"><path d="M227 54.18h3V82h-3Zm0 0"/></clipPath><clipPath id="k"><path d="M232 58h2.21v30H232Zm0 0"/></clipPath></defs><g clip-path="url(#a)"><path fill="#e2d1ff" d="M1350.484 0h97v375.883h-97Zm0 0"/></g><g clip-path="url(#b)"><path fill="#e2d1ff" fill-rule="evenodd" d="M1361.031 411.379v-587.79H83.31v551.712c16.43-11.188 30.972-23.14 42.93-35.656 178.007-187.028 495.007-139.692 701.331-40.41 155.215 74.738 351.399 127.245 533.461 112.144Zm0 0"/></g><g clip-path="url(#c)"><path fill="#e2d1ff" d="M.707 0h84.336v375.875H.707Zm0 0"/></g><g clip-path="url(#d)"><path fill="#b388ff" d="M1007.969 210.422c.02.355.039.719.074 1.074.059.719.148 1.438.27 2.149.058.359.125.714.207 1.07.078.351.164.707.257 1.058.196.707.434 1.41.743 2.098.152.344.328.684.53 1.02l.544.898c.36.602.738 1.215 1.148 1.816.414.598.86 1.188 1.352 1.739a14.61 14.61 0 0 0 3.406 2.84c.633.386 1.281.726 1.945 1.03.664.306 1.336.579 2.024.813l.254.094.257.082.258.086c.086.027.172.059.258.082l.52.156.129.04.132.035.258.07.262.07.265.07.532.125c.355.079.707.153 1.058.215 1.262.23 2.52.395 3.785.512l.024.047c.066.137.117.27.156.406.074.27.094.535.055.801-.043.27-.137.539-.29.805a4.056 4.056 0 0 1-.585.77 1.37 1.37 0 0 0-.367.737c-.008.051-.012.106-.012.16 0 .055.004.106.004.16.027.216.098.4.191.544.09.148.192.261.297.351.11.094.219.164.324.223a1.896 1.896 0 0 0 .676.203c.113.012.227.012.34.008.113-.012.223-.027.332-.055l.02-.004.011-.004.024-.004.047-.015.093-.024.184-.046.187-.051c.247-.07.489-.149.73-.227.966-.316 1.911-.707 2.821-1.176a15.74 15.74 0 0 0 1.336-.77c.438-.273.86-.577 1.27-.91.406-.335.8-.695 1.16-1.1.183-.2.355-.419.515-.645.07-.098.141-.2.204-.301l.082-.012.27-.031.265-.04.531-.073.531-.09c.086-.012.176-.028.262-.043l.266-.051c.175-.031.351-.066.527-.098l.527-.113c.09-.02.176-.035.266-.059l.262-.062c.703-.16 1.394-.36 2.086-.578l.515-.168.13-.043.128-.047.254-.094c.344-.12.676-.257 1.016-.394l.062-.028.066-.027.122-.055.25-.109.25-.113c.082-.04.164-.082.246-.121.164-.082.324-.16.488-.246l.484-.266c.16-.082.317-.18.477-.274l.234-.144.121-.07.114-.078.46-.305.06-.04.058-.042.113-.082.117-.082c.04-.028.074-.055.11-.086.148-.113.3-.227.441-.348.074-.062.145-.117.215-.18l.21-.183.208-.188.203-.191.195-.195.102-.098.094-.098c.515-.535.992-1.097 1.425-1.687.434-.59.832-1.203 1.196-1.836.367-.629.691-1.281.988-1.945.598-1.32 1.062-2.7 1.41-4.102.695-2.8.918-5.715.64-8.59a23.436 23.436 0 0 0-.8-4.25 21.36 21.36 0 0 0-1.613-4.027c-.04-.082-.082-.16-.125-.242l-.133-.239c-.02-.039-.043-.078-.067-.12l-.07-.122-.074-.12-.035-.063-.04-.059-.156-.238a1.163 1.163 0 0 0-.078-.114l-.082-.117c-.105-.152-.222-.3-.336-.449l-.086-.11-.09-.105-.085-.105c-.032-.035-.059-.075-.09-.106l-.188-.21c-.031-.032-.058-.071-.093-.102l-.098-.102-.192-.199c-.062-.066-.128-.129-.195-.195-.066-.063-.133-.13-.2-.192l-.202-.183a15.453 15.453 0 0 0-1.723-1.356 18.82 18.82 0 0 0-1.86-1.125l-.241-.129-.243-.125-.484-.234-.492-.227c-.082-.039-.164-.07-.25-.109l-.246-.106-.25-.101-.25-.098-.254-.097c-.086-.032-.168-.067-.25-.094l-.508-.184a6.473 6.473 0 0 1-.254-.086l-.254-.086-.258-.086c-.082-.027-.168-.05-.257-.078l-.512-.152-.516-.145-.258-.07c-.085-.02-.171-.043-.261-.062l-.516-.13c-.176-.038-.351-.077-.523-.113-.348-.082-.7-.144-1.047-.214a8.173 8.173 0 0 0-.524-.094l-.527-.094-.527-.078-.262-.04-.266-.038-.527-.067-.262-.035c-.09-.011-.176-.015-.265-.027l-.532-.055c-.086-.008-.175-.015-.261-.027l-.266-.024-.531-.042-.531-.04c-.356-.027-.707-.039-1.06-.058a3.11 3.11 0 0 0-.269-.012l-.53-.015c-.09-.004-.18-.008-.27-.008-.356-.004-.707-.012-1.063-.008l-.535.004-.535.012-.266.003-.265.012-.536.028c-.71.039-1.418.09-2.129.167-.355.036-.707.083-1.062.13l-.133.015-.133.023-.265.04-.262.039-.133.02-.129.019-.527.09-.133.027-.129.027-.261.05-.266.052-.129.027-.133.031-.52.118a31.88 31.88 0 0 0-2.074.562c-.34.105-.68.227-1.02.34-.171.062-.339.125-.507.191l-.254.094-.246.102c-.168.07-.336.136-.5.207l-.496.222c-.168.067-.328.149-.488.23l-.364.177-.12.066-.481.25-.117.062-.117.067-.239.137-.234.136-.235.145-.23.14-.113.075-.059.035-.058.039-.45.305-.113.074-.11.082-.222.164-.219.16c-.074.055-.144.11-.215.164-.144.113-.285.227-.43.34l-.41.36-.105.09a2.057 2.057 0 0 0-.101.093l-.399.375-.047.047-.05.054-.098.098c-.137.133-.258.274-.387.41a12.74 12.74 0 0 0-1.312 1.797c-.196.313-.372.637-.543.961-.079.164-.164.328-.243.492-.039.082-.078.164-.113.25l-.11.25c-.034.082-.073.168-.105.254-.035.086-.07.168-.105.25l-.098.258-.05.125-.044.129-.093.254-.09.258c-.059.171-.113.347-.168.52-.215.69-.39 1.39-.543 2.097a28.481 28.481 0 0 0-.559 4.273c-.023.36-.035.715-.043 1.078a24.78 24.78 0 0 0-.004 1.078c0 .352.012.708.028 1.067Zm1.57-2.125c.008-.34.016-.68.031-1.02.035-.68.09-1.359.168-2.035.082-.672.188-1.344.324-2.008a22.286 22.286 0 0 1 .641-2.453l.078-.238.086-.238.04-.118.046-.117.09-.238c.027-.078.062-.152.094-.234.027-.078.058-.153.097-.23l.098-.231c.035-.075.07-.153.106-.227.066-.152.14-.3.214-.45.153-.296.305-.585.477-.87.34-.567.723-1.102 1.148-1.594.11-.121.215-.242.332-.36l.082-.085.043-.043.047-.043.18-.172.184-.176.09-.082.093-.082.379-.332c.125-.105.258-.21.39-.316.067-.051.13-.106.196-.157l.406-.304.203-.149.418-.285.051-.035.055-.035.316-.2.215-.132.219-.13.328-.187.05-.03.055-.032.45-.238.109-.063.117-.058.227-.11c.152-.078.304-.152.457-.219l.465-.21c.156-.067.312-.13.468-.196l.239-.097.238-.09c.16-.063.32-.125.476-.18.325-.11.641-.23.97-.324a26.31 26.31 0 0 1 1.972-.547l.5-.117.125-.028.125-.023.5-.102.125-.023.129-.024.508-.09.125-.023.129-.015.507-.079.13-.02.124-.019c.34-.043.68-.09 1.024-.125a40.073 40.073 0 0 1 2.054-.168l.774-.035.258-.008.515-.011.516-.004a44.087 44.087 0 0 1 4.125.176l.258.023c.086.004.168.016.257.027l.512.055c.086.008.168.016.258.027l.254.032.512.066.129.016.128.02.254.038.508.075.508.09c.172.03.34.058.508.09.336.066.672.128 1.004.21.168.04.336.07.504.11l.496.125c.082.023.168.039.25.066l.246.066.492.137.492.148c.082.028.164.051.246.079l.485.164c.082.027.16.05.242.082l.48.172c.082.027.157.058.239.09l.238.093.234.094.469.203c.078.031.156.066.234.102l.461.21.453.227.227.117.223.117c.593.325 1.171.672 1.722 1.055.551.383 1.078.797 1.567 1.246l.18.168c.062.059.12.117.175.176.059.055.121.113.176.176l.258.27.082.09.164.187a.903.903 0 0 1 .078.093l.156.188c.028.027.051.062.078.098.094.128.2.257.285.394l.07.098c.024.035.048.066.067.101l.133.203.063.102.058.105.063.102c.02.035.039.074.062.11l.121.222c.04.07.078.149.117.223a19.93 19.93 0 0 1 1.47 3.761c.366 1.301.6 2.637.718 3.985a24.148 24.148 0 0 1-1.274 9.996 19.61 19.61 0 0 1-.761 1.875c-.282.61-.59 1.207-.93 1.789-.34.574-.71 1.133-1.11 1.664-.796 1.063-1.722 2.023-2.769 2.8-.035.024-.062.048-.098.071l-.101.07-.098.07-.101.071-.414.27-.106.066-.105.063-.215.128a7.78 7.78 0 0 1-.434.246l-.437.235c-.153.074-.301.148-.45.219-.078.039-.148.074-.226.109l-.46.203-.114.05-.117.048c-.313.125-.621.254-.942.363l-.234.082-.117.043-.121.04-.485.16c-.644.195-1.297.378-1.96.527l-.247.058-.25.051-.496.102c-.168.035-.336.062-.5.093l-.254.047c-.086.016-.168.028-.25.04l-.504.081-.762.106-.253.031-.512.059a.928.928 0 0 0-.692.464l-.003.012a6.235 6.235 0 0 1-.325.516 7.77 7.77 0 0 1-.398.488c-.285.32-.61.621-.957.902-.348.282-.719.543-1.102.79-.386.242-.785.468-1.195.683a18.105 18.105 0 0 1-3.059 1.219c.055-.082.106-.172.157-.258.246-.426.43-.914.507-1.438.04-.257.047-.527.032-.789a3.86 3.86 0 0 0-.137-.773 4.443 4.443 0 0 0-.27-.703 5.753 5.753 0 0 0-.363-.629.899.899 0 0 0-.676-.395h-.004a44.832 44.832 0 0 1-2.046-.21 31.572 31.572 0 0 1-2.024-.31 21.223 21.223 0 0 1-1.48-.315l-.121-.028-.125-.035-.493-.133-.125-.035-.12-.035-.489-.14c-.082-.028-.16-.052-.242-.079l-.485-.156-.242-.082a22.183 22.183 0 0 1-1.87-.742c-.61-.278-1.2-.582-1.766-.922a14.057 14.057 0 0 1-1.61-1.137c-.508-.414-.98-.867-1.418-1.355a16.201 16.201 0 0 1-1.234-1.563 38.448 38.448 0 0 1-1.11-1.723l-.546-.89a8.992 8.992 0 0 1-.446-.84 12.79 12.79 0 0 1-.668-1.848c-.367-1.285-.593-2.625-.722-3.972-.035-.34-.059-.68-.078-1.016-.02-.34-.036-.68-.04-1.02-.027-.335-.023-.675-.023-1.015Zm0 0"/></g><path fill="#b388ff" d="M1023.227 208.625c-.434-.727-.582-.867-1.293-.559-.465.204-.602.262-.696.786-.125.738.617 5.718.395 5.816-.223.098-1.559-1.3-2.48-2.316-.403-.45-.88-.91-1.352-1.29-.41-.347-.582-.472-1.184-.214-.601.261-.656.406-.625.972.04.926 2.531 6.575 3.059 7.785.39.895.543 1.133 1.312.797.793-.343.79-.558.301-1.675-.742-1.704-2.039-4.516-1.844-4.602.258-.113 1.696 1.754 2.93 2.512.32.195.621.078.828-.008.172-.078.54-.266.473-.879-.188-1.605-.395-4.387-.25-4.45.144-.062 1.285 2.587 2.191 4.657.63 1.445.77 1.73 1.625 1.36.5-.22.371-.512-.14-1.688-.711-1.629-1.368-2.973-2.114-4.586-.375-.797-.687-1.652-1.136-2.418ZM1029.074 215.723c.238.55.485.547 1.063.293 1.187-.516 2.36-1.098 3.547-1.618.476-.21.578-.382.375-.847-.184-.414-.34-.438-.778-.246-.578.254-1.515.664-2.113.965-.309.164-.613.003-.746-.301l-.258-.602c-.324-.734-.617-1.48-.926-2.222.043-.063.164-.13.32-.196.43-.187 1.153-.402 1.594-.59.489-.214.676-.328.496-.73-.195-.453-.378-.434-.988-.168-.601.262-1.187.55-1.762.871-.27-.613-1.191-2.758-1.074-3.129.02-.082.2-.176.457-.289.5-.219 1.305-.48 1.82-.707.54-.23.68-.41.508-.8-.293-.677-.496-.907-1.132-.63l-.86.371c-.855.375-1.719.766-2.578 1.137-.637.278-.414.75-.121 1.496 1.062 2.703 2.012 5.32 3.156 7.942ZM1038.914 212.395c2.41-1.055 2.195-2.985.899-6.122-1.301-3.117-2.598-5.027-5.063-3.953-2.582 1.125-2.621 2.774-1.047 6.547 1.578 3.785 2.527 4.692 5.211 3.528Zm-3.562-8.708c1.285-.562 2.226.43 3.386 3.215 1.16 2.801 1.215 3.93-.058 4.485-1.274.554-2.032-.121-3.313-3.188-1.277-3.058-1.3-3.949-.015-4.512ZM1040.012 201.512l3.312 6.758c.64 1.308.91 1.585 1.727 1.23.5-.219.691-.563.687-1.102-.008-.683-.191-1.375-.308-2.039-.254-1.418-.645-3.62-.535-3.668.109-.05 1.347 1.817 2.199 3.004.367.512.691 1.082 1.183 1.48.543.446.758.5 1.38.227.808-.351.644-.761.257-1.847l-2.562-7.246c-.051-.11-.098-.22-.16-.325-.34-.652-.579-.722-1.079-.504-.574.25-.086 1.141.364 2.274.812 2.035 2.398 5.7 2.18 5.797-.223.097-1.579-2.082-2.427-3.285-.382-.547-.71-1.133-1.187-1.594-.305-.3-.703-.508-1.133-.32-.367.16-.363.64-.36.972.005.61.134 1.211.235 1.809.192 1.172.938 3.363.61 3.508-.332.144-1.946-3.891-2.7-5.922-.3-.828-.476-1.102-1.382-.707-.665.289-.735.55-.446 1.215.047.093.102.187.145.285ZM1017.434 202.203c-.11.582-.036 1.098.214 1.477.422.675.907.992 1.48.972h.005c.449-.007.894-.238 1.281-.445.031-.016.059-.035.094-.05l.05-.028c.172-.094.337-.176.477-.23.2-.07.438-.126.75-.176l.055-.016c.453-.094.922-.187 1.238-.512.336-.351.457-.906.371-1.687-.05-.504-.41-.973-1.035-1.352-.95-.597-2.305-.86-3.016-.586-.48.188-.937.57-1.289 1.07-.355.505-.593 1.06-.675 1.563ZM1016.25 202.73c.121-.042.242-.125.363-.242.348-.367.45-.992.242-1.52-.16-.421-.464-.745-.843-.898a1.02 1.02 0 0 0-.75-.027c-.008 0-.016.004-.024.008-.605.234-.883 1.039-.61 1.762.278.726 1.005 1.136 1.622.917ZM1016.688 199.715c.32.176.648.207.921.094l.004-.004c.121-.043.242-.125.364-.243.351-.363.449-.988.246-1.515v-.004a1.506 1.506 0 0 0-.696-.82c-.304-.168-.617-.207-.886-.11-.012.004-.028.008-.04.016h-.003c-.606.23-.887 1.039-.61 1.762.13.351.383.652.7.824ZM1022.73 199.816c.32.176.649.211.926.094h.004a.999.999 0 0 0 .363-.246c.348-.363.45-.988.243-1.516-.157-.375-.391-.66-.692-.824-.304-.168-.617-.207-.886-.11-.016.009-.028.009-.043.016-.61.235-.887 1.04-.61 1.762.133.356.383.653.695.824ZM1019.773 198.54c.32.175.649.21.926.093h.004c.121-.043.242-.125.363-.242.121-.13.207-.278.262-.453v-.008c.125-.309.121-.676-.02-1.059a1.507 1.507 0 0 0-.69-.824c-.306-.168-.618-.207-.891-.11-.012.008-.028.008-.04.016-.609.234-.886 1.04-.609 1.762.133.355.383.656.695.824ZM1048.414 216.816c-.95-.597-2.309-.863-3.02-.59-.48.188-.937.57-1.289 1.075-.343.5-.585 1.054-.671 1.558-.106.586-.032 1.098.218 1.48.418.673.907.99 1.48.97h.005c.449-.004.89-.239 1.281-.446.027-.015.059-.031.094-.047l.05-.027c.168-.094.333-.18.477-.23.2-.075.438-.13.75-.18l.055-.012c.453-.094.922-.191 1.234-.512.34-.351.461-.906.375-1.69-.058-.5-.414-.97-1.039-1.349ZM1042.02 216.727a1.05 1.05 0 0 0-.774-.02c-.605.234-.887 1.043-.61 1.766.274.722 1.005 1.136 1.622.914.12-.043.242-.125.363-.242.352-.364.45-.989.242-1.516-.16-.422-.468-.75-.843-.902ZM1043.621 216.465a.984.984 0 0 0 .363-.242c.348-.364.45-.989.243-1.516v-.004a1.499 1.499 0 0 0-.692-.82c-.305-.168-.617-.207-.887-.11a.19.19 0 0 0-.043.016c-.609.234-.886 1.04-.609 1.762.125.351.375.652.691.824.32.176.649.21.922.094ZM1049.582 213.98c-.305-.164-.617-.203-.887-.109-.011.008-.027.012-.039.016h-.004c-.605.234-.886 1.043-.609 1.761.129.356.375.653.691.829.32.175.649.207.926.093l.004-.004c.121-.043.242-.125.363-.242.348-.363.45-.988.243-1.515-.149-.38-.391-.664-.688-.829ZM1045.777 215.203c.32.176.649.207.926.094v-.004c.125-.043.246-.125.367-.242.121-.13.203-.278.258-.453l.004-.008c.125-.309.117-.676-.02-1.059a1.537 1.537 0 0 0-.69-.824c-.31-.164-.622-.207-.892-.11-.011.008-.027.012-.039.016h-.004c-.605.235-.882 1.043-.609 1.762.133.352.387.652.7.828Zm0 0"/><g clip-path="url(#e)"><path fill="#b388ff" d="M1011.52 115.91c-.223.457-.47.903-.66 1.371-.622 1.52-1.215 3.047-1.833 4.57-.156.391-.34.774-.53 1.153-.177.351-.477.558-.852.664-.61.176-1.223.16-1.829-.027-.515-.16-.875-.512-1.12-.985a6.11 6.11 0 0 1-.712-2.531c-.07-1.285-.117-2.578-.054-3.863.11-2.38.293-4.758.468-7.133.141-1.852.325-3.695.465-5.543.047-.613.032-1.234.032-1.852-.004-.246-.047-.488-.086-.863-.184.23-.305.371-.41.52-.805 1.168-1.458 2.418-2.032 3.71-.789 1.774-1.554 3.56-2.34 5.337-.164.37-.363.722-.562 1.078-.219.394-.574.613-1.004.718a3.665 3.665 0 0 1-1.781-.023c-.614-.16-1.067-.531-1.39-1.07a9.064 9.064 0 0 1-1.08-2.524c-.366-1.453-.694-2.918-1.038-4.375a.479.479 0 0 0-.168-.293c-.059.176-.121.348-.168.524-.434 1.625-.668 3.285-.832 4.953a224.53 224.53 0 0 0-.598 6.86 43.297 43.297 0 0 0 .02 6.405c.011.141.023.282.023.422.012.551-.11.735-.629.887a2.97 2.97 0 0 1-1.824-.031c-.465-.153-.754-.496-.973-.918-.699-1.336-1.226-2.739-1.64-4.184-.75-2.597-1.25-5.254-1.785-7.902-.477-2.367-.993-4.73-1.446-7.106-.187-.984-.273-1.992-.37-2.992-.028-.308.038-.633.097-.941.113-.625.508-1.024 1.129-1.106a5.072 5.072 0 0 1 1.418.012c.594.086 1.039.457 1.273 1.008.242.566.469 1.144.625 1.738.98 3.723 1.785 7.488 2.543 11.262a.59.59 0 0 0 .184.34l.246-1.832c.316-2.344.605-4.692.965-7.028.16-1.062.465-2.101.695-3.152.137-.648.543-1.016 1.172-1.14 1.988-.395 3.344.25 4.156 1.577.348.563.621 1.188.844 1.817.465 1.3.723 2.652.863 4.027.02.176.04.352.067.528.007.046.035.093.082.199.117-.203.218-.36.304-.528.7-1.386 1.371-2.789 2.106-4.16.66-1.226 1.398-2.41 2.078-3.625.484-.86 1.234-1.164 2.164-1.16 1.555.008 2.566.7 3.129 2.156.39 1.016.531 2.09.535 3.168 0 1.535-.047 3.075-.137 4.606-.125 2.113-.3 4.226-.476 6.336-.102 1.195-.258 2.386-.387 3.582-.027.254-.047.508.031.789.086-.145.176-.29.254-.438.555-1.023 1.09-2.058 1.672-3.066.262-.457.606-.871.938-1.277a.98.98 0 0 0 .246-.614c.136-2.465 1.02-4.64 2.613-6.515 1.613-1.903 3.695-2.774 6.18-2.7 1.054.032 2.015.348 2.851.997 1.051.804 1.414 1.89.992 3.148-.558 1.668-1.656 2.89-3.23 3.68-1.137.57-2.36.82-3.613.953-.141.015-.278.031-.403.047-.035.043-.074.066-.078.097-.125 1.649-.062 3.282.555 4.848.097.242.222.48.36.707.612 1.027 1.534 1.402 2.698 1.266 1.141-.137 2.188-.543 3.153-1.157.535-.343 1.05-.718 1.582-1.066.844-.547 1.695-1.086 2.547-1.625.164-.105.293-.2.34-.426.414-2.058 1.675-3.457 3.515-4.367.805-.402 1.637-.75 2.445-1.137a10.983 10.983 0 0 0 2.633-1.765c.805-.727 1.692-1.254 2.782-1.422 1.214-.188 2.32.101 3.183.937.543.528.961 1.215 1.328 1.89.422.79.696 1.661 1.094 2.466.344.691.766 1.347 1.172 2.004.262.422.547.824.836 1.226.879 1.211 1.09 2.598.988 4.031-.043.633-.328 1.254-.523 1.954.675.75 1.527 1.257 2.668 1.191 1.328-.078 2.507-.55 3.601-1.27 1.238-.812 2.27-1.851 3.184-3.007 1.648-2.078 2.914-4.371 3.738-6.903a2.26 2.26 0 0 0 .106-.824 57.468 57.468 0 0 1-.118-6.406 7.73 7.73 0 0 1 .098-.895c.07-.414.3-.715.691-.87 1.172-.47 2.344-.462 3.493.077.476.223.773.63.89 1.13.172.738.332 1.48.426 2.23.547 4.261.785 8.543.984 12.832.055 1.16.192 2.32.293 3.48.012.133.063.262.121.5.211-.344.391-.582.512-.847.54-1.192 1.09-2.375 1.578-3.586.922-2.278 1.594-4.637 2.239-7.004.097-.36.214-.711.324-1.063.129-.402.426-.59.824-.652.852-.125 1.414.144 1.852.91.511.898.765 1.89 1.039 2.879.414 1.496.816 2.996 1.28 4.477.208.648.544 1.261.845 1.875.105.214.285.39.46.62.493-.687.68-1.417.79-2.167.082-.578.14-1.164.129-1.743a199.002 199.002 0 0 0-.16-5.293c-.067-1.554-.169-3.105-.266-4.656-.078-1.215-.215-2.43-.242-3.644-.036-1.64 0-3.282.035-4.922.011-.586.226-.774.804-.856.192-.027.387-.035.579-.02.699.06.992.27 1.152.958.234.996.394 2.008.625 3.004.402 1.754.445 3.539.5 5.32.086 3.074-.035 6.145-.305 9.207a14.706 14.706 0 0 1-.742 3.57 7.6 7.6 0 0 1-.41.977c-.813 1.605-2.676 2.07-4.168 1.047-.504-.344-.89-.8-1.227-1.305-.8-1.187-1.293-2.504-1.593-3.894-.282-1.297-.559-2.59-.836-3.883a.526.526 0 0 0-.188-.309c-.082.235-.172.465-.246.703-.781 2.621-1.55 5.246-2.34 7.868-.23.757-.472 1.515-.765 2.253-.184.454-.45.88-.73 1.282-.356.5-.884.738-1.493.8-1.281.137-2.324-.292-3.129-1.296-.75-.93-1.27-1.989-1.71-3.094-.774-1.93-1.192-3.95-1.493-5.996-.027-.188-.059-.375-.11-.688-.14.262-.226.41-.3.563-1.035 2.14-2.293 4.136-3.883 5.91-1.313 1.465-2.86 2.57-4.8 3.05-1.177.294-2.376.407-3.567.157-.614-.129-1.203-.39-1.867-.613-.028.023-.125.09-.215.168-.746.636-1.614.886-2.586.906-1.535.027-2.852-.492-4.086-1.371-1.465-1.04-3.125-1.45-4.91-1.203-.485.07-.946.277-1.422.414-3 .863-5.113-1.375-5.309-3.836-.023-.278-.058-.555-.097-.93-.22.156-.375.254-.52.371-.82.668-1.625 1.36-2.457 2.012-2.559 2.012-5.438 2.617-8.582 1.84-2.774-.688-4.387-2.492-4.879-5.305-.016-.101-.035-.2-.055-.3l-.132-.036Zm5.437-3.11c.43-.07.742-.109 1.047-.179.375-.094.754-.187 1.113-.328 1.387-.54 2.34-1.523 2.899-2.898a2.948 2.948 0 0 0 .172-1.61c-.125-.805-.543-1.394-1.297-1.742-.317-.148-.594-.137-.895.043-.469.281-.8.687-1.074 1.144a14.545 14.545 0 0 0-1.719 4.297c-.09.387-.152.782-.246 1.274"/></g><path fill="#b388ff" d="M1041.172 101.043c-.04.91-.129 1.625-.41 2.305-.254.617-.664 1.086-1.27 1.359-.449.2-.91.379-1.379.535-.863.285-1.605.035-2.222-.59-.516-.523-.883-1.132-1.059-1.863-.246-1.027-.371-2.047-.043-3.082.352-1.117.996-1.965 2.102-2.441.656-.282 1.293-.223 1.879.117 1.07.617 1.898 1.472 2.246 2.695.105.367.125.762.156.965M1050.035 102.852c-.094.535-.14 1.085-.289 1.605-.394 1.387-1.32 2.258-2.715 2.617-.273.07-.55.125-.832.16-1.488.192-2.808-.765-2.887-2.265-.144-2.781 1.313-4.692 4.055-5.196.871-.16 1.59.207 2.082.957.422.641.606 1.344.586 2.122M1026.617 105.477c.063-.454.063-.926.192-1.36.406-1.351 1.343-2.156 2.722-2.445.555-.117 1.04.07 1.489.394 1.171.86 1.632 2.043 1.546 3.461a19.017 19.017 0 0 1-.199 1.625c-.16 1.047-.789 1.793-1.754 2.07-1.394.407-2.691.243-3.46-1.28-.395-.778-.532-1.602-.536-2.465M1050.082 114.477c-.195-.028-.516-.051-.816-.133-.98-.266-1.528-1.074-1.403-2.074.203-1.66 1.63-3.454 3.512-3.79a2.582 2.582 0 0 1 2.727 1.29c.847 1.535.265 3.316-1.34 4.113-.805.398-1.668.55-2.68.594"/><g clip-path="url(#f)"><path fill="#b388ff" d="M428.652 156.316c1.157-.449 2.297-.468 3.438-.375.187.012.363.211.543.325-.156.129-.297.324-.477.37-.988.259-1.988.477-2.984.712-.082.02-.156.062-.223.09-.008.054-.02.082-.02.109-.011 1.07.762 1.16 1.555 1.316.696.137 1.364.407 2.032.645.125.047.195.238.293.363-.157.106-.313.297-.473.297-.39 0-.785-.082-1.18-.137-.5-.07-1-.144-1.586-.23.465 1.207.895 2.328 1.332 3.445.668 1.723 1.723 3.211 2.848 4.656.566.73 1.125 1.465 1.684 2.203.722.961 1.472 1.903 2.156 2.895a28.799 28.799 0 0 1 1.656 2.695c.508.938.977 1.907 1.371 2.899.492 1.238.637 2.558.828 3.875.176 1.199.16 2.383.016 3.57-.07.582-.176 1.164-.332 1.723-.098.347-.172.593.156.87.418.356.73.837 1.164 1.169.77.594 1.727.683 2.656.82 1.856.277 3.637-.023 5.383-.668 1.293-.476 2.504-1.101 3.52-2.031 1.258-1.149 1.777-2.633 1.887-4.305.128-1.883-.653-3.48-1.504-5.066-.352-.653-.797-1.281-1.016-1.98-.469-1.481-1.04-2.954-1.121-4.532-.059-1.129-.145-2.266-.067-3.39a9.229 9.229 0 0 1 .989-3.618c.98-1.918 2.246-3.617 4-4.902 1.379-1.004 2.847-1.848 4.543-2.195.828-.168 1.668-.371 2.508-.391 2.054-.043 4.043.309 5.921 1.203 1.649.781 2.594 2.117 3.004 3.836.184.766.121 1.586-.27 2.285-.487.875-1.476 1.207-2.37.637-.871-.555-1.364-1.402-1.778-2.328a1.547 1.547 0 0 0-.77-.735c-1.554-.613-3.163-.847-4.827-.492-.598.13-1.227.133-1.805.305-.52.16-.98.508-1.492.719-1.106.445-1.844 1.312-2.598 2.172-.722.816-1.183 1.8-1.46 2.82-.227.812-.223 1.715-.192 2.574.07 1.797.762 3.445 1.457 5.07.566 1.328 1.262 2.606 1.848 3.93.5 1.125.878 2.285 1.105 3.516.25 1.363.191 2.668-.32 3.925-.278.684-.711 1.32-1.157 1.918-.902 1.207-2.023 2.207-3.293 3.008-1.156.727-2.386 1.305-3.718 1.668-1.356.367-2.723.594-4.121.59-1.98-.004-3.88-.383-5.618-1.379-.476-.273-.957-.547-1.414-.855-.113-.075-.199-.309-.171-.446.046-.261.265-.214.453-.12 1.109.542 2.21 1.113 3.336 1.628.316.145.703.145 1.062.184 1.383.144 2.77.18 4.137-.09.945-.188 1.894-.402 2.804-.711.672-.23 1.297-.61 1.926-.95.422-.23.852-.476 1.219-.78a20.838 20.838 0 0 0 1.809-1.665c.722-.753 1.324-1.601 1.671-2.609.305-.871.36-1.758.239-2.652-.11-.817-.27-1.63-.457-2.434-.067-.297-.297-.558-.426-.847-.363-.836-.691-1.684-1.07-2.512-.375-.809-.852-1.57-1.18-2.395-.39-.972-.617-2.008-1.008-2.98-.34-.844-.363-1.719-.387-2.578-.05-1.676.465-3.223 1.391-4.63.973-1.476 2.23-2.632 3.852-3.355a11.431 11.431 0 0 1 3.578-.945c1.425-.137 2.828-.098 4.18.32 1.136.356 2.101 1.012 2.62 2.184.18.41.45.789.727 1.148.227.301.602.434.938.262.246-.125.507-.39.582-.648.312-1.04.011-2.008-.504-2.91-.63-1.102-1.637-1.72-2.813-2.126a12.61 12.61 0 0 0-5.02-.648c-1.48.098-2.874.547-4.163 1.273-.825.47-1.704.915-2.375 1.563-1.622 1.555-2.938 3.348-3.582 5.55-.43 1.481-.34 2.997-.278 4.512.067 1.622.528 3.145 1.164 4.622.262.613.567 1.207.852 1.808.586 1.266 1.324 2.48 1.535 3.883.215 1.41.11 2.797-.422 4.16-.398 1.024-.957 1.934-1.777 2.621-.719.602-1.543 1.106-2.383 1.531-1.7.86-3.508 1.383-5.434 1.391-1.812.004-3.57-.273-5.12-1.277-.407-.262-.708-.68-1.106-1.07-.13.363-.254.734-.403 1.097-.453 1.102-.992 2.164-1.78 3.07-.204.235-.223.461-.118.723.309.758-.227 1.266-.86 1.492-1.25.438-2.562.602-3.894.645-1.086.031-2.168.113-3.254.164-.84.039-1.68.097-2.52.082-1.921-.035-3.843-.055-5.757-.188-.965-.066-1.91-.375-2.879-.574.004.024.023.113.031.207.078.86-.39 1.352-1.324 1.367-2.145.028-4.102-.48-5.703-2.062-.485.851-1.375.937-2.164 1.12-.836.2-1.711.282-2.57.306a2.61 2.61 0 0 1-2.575-1.93c-.18-.691.157-1.262.848-1.43.285-.07.574-.168.863-.164.559.012.824-.3.988-.77.31-.878.344-1.796.375-2.714.067-1.832-.187-3.637-.437-5.442-.215-1.55-.414-3.105-.645-4.656-.171-1.125-.378-2.246-.582-3.367-.183-1.043-.332-2.098-.59-3.121-.25-1.004-.535-2.016-.956-2.953-.461-1.02-1.157-1.934-1.649-2.942-.406-.836-.656-1.746-.996-2.613-.152-.383-.355-.75-.566-1.187-.973.308-1.965.628-2.961.937a8.365 8.365 0 0 1-.934.234c-.3.059-.476-.14-.3-.375.222-.3.519-.59.847-.757.977-.496 1.992-.903 3.125-1.028a70.219 70.219 0 0 0-.207-.945c-1.543-.012-3.063.082-4.57-.07-.028-.07-.051-.141-.079-.211.192-.164.364-.446.579-.477 1.054-.164 2.117-.265 3.18-.383.187-.02.378-.004.648-.004-.031-.207-.059-.382-.082-.558-.094-.637-.223-1.274-.27-1.914-.09-1.156-.199-2.32-.168-3.477.035-1.27.207-2.531.332-3.793a13.76 13.76 0 0 1 1.254-4.59c.305-.64.695-1.25 1.121-1.82.336-.445.793-.484 1.2-.113.578.535 1.105 1.125 1.628 1.71.27.305.489.657.723.993.711 1.023 1.418 2.05 2.129 3.086.836-.192 1.734-.45 2.652-.594a19.92 19.92 0 0 1 2.64-.238c1.278-.031 2.56.012 3.84.027.227.004.454.055.677.04.875-.052 1.21-.794 1.664-1.36 1.25-1.563 2.597-3.016 4.336-4.055.16-.094.328-.187.5-.265.808-.364 1.28-.239 1.628.582.258.609.344 1.296.442 1.957.11.73.14 1.476.219 2.21.101.977.187 1.954.324 2.922.168 1.165.379 2.325.574 3.485.098.586.207 1.176.32 1.808Zm-5.5 34.746c-.043-.152-.093-.316-.129-.48-.168-.727-.421-1.445-.472-2.18-.121-1.828.324-3.539 1.18-5.164.824-1.554 1.8-2.965 3.222-4.031.649-.488 1.262-1.02 1.926-1.484.98-.688 2.07-1.157 3.226-1.45.887-.222 1.805-.242 2.688.075.215.078.434.21.582.379.094.101.055.32.074.488-.156-.008-.316.004-.465-.024-.086-.02-.152-.113-.238-.148-.965-.406-1.941-.29-2.844.113-.992.442-1.953.98-2.867 1.567a9.734 9.734 0 0 0-1.785 1.492 15.486 15.486 0 0 0-1.625 2.078c-.457.691-.887 1.426-1.184 2.195a9.424 9.424 0 0 0-.562 2.38c-.078.788-.02 1.605.086 2.394.098.707.355 1.39.531 2.086.133.527-.117.875-.648.875-1.328-.004-2.578.347-3.801.812-.742.285-.945.715-.555 1.258.153.207.473.312.735.414 1.554.602 3.21.617 4.832.66 3.046.074 6.097 0 9.148-.054.895-.016 1.785-.145 2.676-.266.512-.067.851-.676.746-1.18a.748.748 0 0 1 .062-.449c.286-.606.63-1.188.883-1.809.332-.82.637-1.66.89-2.507.278-.938.513-1.891.704-2.848.144-.715.242-1.45.266-2.176.03-.894-.012-1.797-.063-2.691-.05-.86-.351-1.649-.687-2.442-.63-1.468-1.344-2.894-2.254-4.187a62.57 62.57 0 0 0-2.27-3.063c-1.308-1.629-2.543-3.324-3.773-5.015-.422-.575-.82-1.192-1.102-1.844-.664-1.54-1.262-3.106-1.855-4.676-.114-.305-.262-.375-.547-.351-.617.05-1.235.097-1.852.105-.16.004-.32-.14-.48-.215.11-.137.195-.344.34-.398.664-.258 1.343-.477 2.05-.723-.066-.238-.144-.512-.23-.828-.746.258-1.461.496-2.168.758-.309.117-.559.148-.719-.211.61-.785 1.492-1.149 2.332-1.555.313-.152.367-.293.293-.597a14.634 14.634 0 0 1-.312-1.579 96.816 96.816 0 0 1-.364-3.375c-.125-1.375-.222-2.75-.34-4.125-.081-.933-.148-1.87-.285-2.796-.078-.528-.363-.614-.816-.325-.297.188-.605.38-.855.621-.977.942-1.957 1.88-2.88 2.871-.55.594-.972 1.31-1.488 1.938a1.598 1.598 0 0 1-1.261.61c-2.078.05-4.157.097-6.235.187-.668.031-1.343.148-1.996.305-.61.148-1.187.41-1.785.605-.453.148-.852-.047-1.055-.469a17.54 17.54 0 0 0-2.02-3.226c-.515-.664-1.073-1.29-1.581-1.957-.242-.317-.395-.301-.551.043-.328.726-.668 1.453-.965 2.191-.183.457-.36.93-.433 1.41-.223 1.434-.477 2.867-.48 4.332 0 .617-.056 1.239-.071 1.856-.008.43-.024.86.015 1.285.098 1.098.243 2.187.325 3.285.027.356.14.422.472.457.621.066 1.235.203 1.844.344.11.027.18.199.27.304-.102.083-.192.2-.309.239-.145.054-.316.054-.477.07-.492.04-.988.07-1.566.113.098.403.18.743.262 1.075.617.125.62.132.285.62-.043.063-.07.173-.05.239.339 1.074.6 2.18 1.05 3.203.535 1.223 1.254 2.36 1.84 3.563.332.68.617 1.398.804 2.129.414 1.59.77 3.195 1.114 4.8.312 1.461.593 2.93.86 4.399.163.922.276 1.855.405 2.785.137.957.309 1.914.383 2.875.07.906-.02 1.824.063 2.726a6.803 6.803 0 0 1-.356 2.817c-.328.98-.965 1.586-2.023 1.687-.215.02-.43.075-.645.11.113.695.649 1.09 1.465 1.117 1.074.035 2.09-.25 3.102-.547.171-.05.336-.262.421-.437.09-.192.086-.426.118-.645.152-1.078.312-2.156.453-3.234.21-1.598.469-3.196.59-4.801.113-1.528.074-3.063.12-4.598.016-.539.075-1.082.157-1.613.02-.11.234-.184.355-.277.075.125.204.246.207.375.024.46-.011.93 0 1.394.043 1.29.165 2.586.137 3.875a66.872 66.872 0 0 1-.8 9.004c-.032.188.03.457.16.586.25.258.574.45.87.664.837.61 1.84.75 2.81.938.53.105 1.097.019 1.698.019-.21-1.062-.793-1.852-1.199-2.715-.258-.558-.453-1.133-.281-1.73.32-1.137.621-2.29 1.07-3.38.621-1.51 1.36-2.976 2.075-4.452.484-1 1.011-1.985 1.527-2.97.238-.452.48-.905.746-1.343.066-.105.238-.144.363-.215.059.168.203.368.156.496-.332.934-.68 1.864-1.07 2.774-.406.941-.887 1.855-1.297 2.797a36.645 36.645 0 0 0-.89 2.277 129.42 129.42 0 0 0-1.45 4.133c-.12.379-.085.809.204 1.117 1.445-1.32 3.261-1.578 5.093-1.934Zm0 0"/></g><path fill="#b388ff" d="M418.703 157.543c-.793.023-1.828-.836-2.098-1.793a4.552 4.552 0 0 1-.171-1.297c0-.183.23-.508.375-.516.238-.019.336.235.414.512.21.73.613 1.38 1.218 1.852.34.262.704.05.946-.203.39-.418.71-.899 1.093-1.325.13-.14.364-.187.551-.277.04.172.106.344.106.516 0 .613-.254 1.136-.645 1.593-.469.551-1.015.965-1.789.938ZM409.305 155.23c-.024.95-.418 1.645-1.317 2.036-.847.37-1.699.406-2.554.058-.52-.215-1.04-1.023-.993-1.57.008-.121.172-.309.286-.324a.505.505 0 0 1 .41.199c.386.605.89.89 1.629.789 1.015-.137 1.539-.738 1.746-1.691.043-.18.043-.418.36-.403.292.012.355.203.405.422.02.07.024.145.028.219.004.09 0 .176 0 .265ZM412.691 158.887c0 .675.028 1.32-.015 1.96-.016.2-.227.391-.348.583-.18-.18-.453-.332-.52-.547-.175-.543-.261-1.113-.37-1.676-.051-.258-.165-.402-.446-.465-.187-.043-.465-.215-.48-.351-.028-.211.09-.489.238-.657.352-.406 2.05-.574 2.64-.136.294.214.247.78-.09.98-.187.113-.39.2-.609.309Zm0 0"/><g clip-path="url(#g)"><path fill="#b388ff" d="M1196.832 338.426c-.05 0-.105 0-.156.004-2.098.363-3.25 2.582-3.418 4.535-.246 1.777.539 4.058 2.484 4.453.285.055.578.031.856-.043 2.343-.79 3.394-3.566 3.054-5.867-.097-1.488-1.218-3.106-2.82-3.082Zm-8.89.094c-1.305.03-2.32 1.355-2.528 2.597-.437 2.465.684 5.524 3.25 6.305.242.05.488.055.734.02 1.735-.29 2.47-2.235 2.395-3.805-.05-2.07-1.129-4.465-3.277-5.047a1.96 1.96 0 0 0-.575-.07Zm14.574 6.996c-2.258.132-3.805 2.386-4.024 4.488-.3 1.516.508 3.543 2.238 3.664 2.415-.031 4.06-2.606 4.125-4.824.153-1.469-.71-3.246-2.34-3.328Zm-19.746.5c-.961-.008-1.907.566-2.22 1.543-.835 2.609.845 5.914 3.61 6.46 1.152.2 2.168-.687 2.453-1.753.606-2.278-.64-4.926-2.746-5.961a2.304 2.304 0 0 0-1.097-.29Zm10.113 4.68c-1.883.003-3.793.956-5.012 2.378-1.316 1.656-2.394 3.586-2.816 5.676-.512 1.504.648 3.238 2.257 3.246 1.938.055 3.598-1.273 5.524-1.371 1.633-.25 3.094.598 4.562 1.156 1.25.531 2.977.328 3.618-1.015.5-1.371-.239-2.836-.852-4.051-1.246-1.977-2.582-4.055-4.629-5.29a4.955 4.955 0 0 0-2.652-.73Zm0 0"/></g><path fill="#b388ff" d="m218.133 92.691.894-.21c-.847-1.278-1.37-2.57-1.945-3.895-.555.539.648 4.203 1.05 4.105M220.89 86.188c0 .109.024.25.173.316a.63.63 0 0 0 .253.039c.176.004.352.004.524.008.043 0 .09 0 .113-.02.027-.02.02-.054.012-.086-.305-1.18-.387-2.324-.422-3.476-.555 1.011-.645 2.062-.652 3.219M228.586 86.773a6.04 6.04 0 0 0 1.02.204c.558.062-.004-3.797-.47-4.106-.003 1.266-.097 2.676-.55 3.902M232.11 91.605c.269.067.527.184.745.348.102.074.657-1.523.68-1.672.09-.605.055-1.277-.191-1.86-.137 1.099-.7 2.216-1.235 3.184"/><g clip-path="url(#h)"><path fill="#b388ff" d="M219.5 96.059c.012-.196.016-.407-.086-.579-.125-.21-.375-.32-.601-.437-1.172-.582-2.125-1.719-2.024-2.95.094-1.093 1.195-1.933 2.379-1.84.164.013.277-.148.2-.284-.497-.88-.552-1.973-.075-2.864.539-1.015 1.57-1.585 2.789-1.484 1.082.086 1.996.574 2.523 1.59.079.144.301.144.375 0 .747-1.422 2.243-2.035 3.172-2.035 1.41 0 2.23.629 2.793 1.437.746 1.07.676 2.172.114 3.282-.075.14.062.3.23.27 1.02-.196 2.2.226 2.652 1.065.524.97.164 2.2-.609 3.016-.656.688-1.098.984-1.89 1.274a.644.644 0 0 0-.438.64c.078 1.13.164 1.922.336 3.121.156 1.106.281 2.211.375 3.32.601 7.239 1.46 13.614 2.547 20.801.023.153.015.313.02.465 0 .125-.02.254-.102.352-.086.101-.227.152-.36.18-.574.12-1.14.246-1.734.246-.762.062-1.524.109-2.29.148-1.515.074-3.034.113-4.554.164l-1.21.047c-1.692.07-3.384.11-5.075.125-1.02.008-1.406.078-1.379-.809.043-1.289.285-1.965.39-3.304.13-1.606.25-3.215.364-4.82.23-3.184.441-6.368.625-9.555.211-3.524.39-7.051.543-10.582"/></g><g clip-path="url(#i)"><path fill="#b388ff" d="m215.934 59.434-.012.875c-.008.293-.012.582-.012.875 0 .582.012 1.16.055 1.734.043.574.12 1.14.238 1.695.121.559.281 1.114.422 1.688.137.574.258 1.168.285 1.785l.008.23v.23c.004.153-.012.306-.02.458-.011.152-.023.3-.039.45-.02.148-.035.3-.058.444-.082.59-.196 1.165-.285 1.73-.047.282-.082.563-.118.845a8.474 8.474 0 0 0-.046.828c-.012.547.058 1.101.148 1.668.09.566.207 1.14.281 1.734.04.297.07.598.082.899.012.152.012.3.02.449 0 .148 0 .3-.004.449 0 .297-.016.594-.031.89-.02.294-.047.587-.07.88-.11 1.168-.274 2.316-.333 3.468-.011.29-.02.575-.02.864 0 .144.009.289.012.433.008.14.012.285.024.43.043.574.144 1.144.3 1.71-.058-.136-.12-.265-.167-.405-.028-.07-.055-.137-.078-.207l-.07-.208a9.19 9.19 0 0 1-.212-.859c-.035-.144-.054-.289-.078-.437-.02-.145-.043-.293-.054-.438a11.27 11.27 0 0 1-.063-.887c-.047-1.18.04-2.351.082-3.507.024-.579.04-1.153.024-1.723a12.092 12.092 0 0 0-.145-1.688c-.09-.562-.207-1.129-.313-1.714-.097-.582-.18-1.188-.167-1.809.011-1.238.32-2.39.503-3.516a9.712 9.712 0 0 0 .157-1.668c-.004-.546-.09-1.105-.196-1.671l-.168-.856c-.054-.285-.109-.578-.148-.871a11.458 11.458 0 0 1-.11-1.781c.012-.594.055-1.18.126-1.762.03-.29.07-.578.113-.867.043-.29.086-.578.137-.867"/></g><path fill="#b388ff" d="M220.79 56.496c-.04 2.106-.161 4.203-.005 6.266.035.515.09 1.031.168 1.535.035.258.086.508.129.762.047.25.102.5.16.754.117.503.242 1.015.356 1.535.109.523.203 1.058.25 1.601.047.543.058 1.082.047 1.617-.02.54-.055 1.07-.106 1.598-.105 1.05-.25 2.09-.348 3.121-.199 2.059-.086 4.156-.054 6.262-.051-.258-.094-.52-.137-.777l-.125-.782a35.046 35.046 0 0 1-.207-1.566 22.082 22.082 0 0 1-.129-3.176c.016-.531.05-1.062.09-1.586.039-.523.086-1.043.121-1.562.035-.52.066-1.035.07-1.547a14.185 14.185 0 0 0-.05-1.528c-.04-.503-.13-1-.227-1.507-.098-.508-.219-1.016-.32-1.54a17.371 17.371 0 0 1-.145-.785c-.039-.27-.078-.535-.101-.8-.032-.266-.051-.532-.067-.801-.008-.133-.012-.266-.02-.399l-.007-.199v-.199a25.288 25.288 0 0 1 .172-3.176c.062-.523.132-1.043.215-1.566l.128-.778c.047-.257.09-.52.141-.777"/><g clip-path="url(#j)"><path fill="#b388ff" d="M227.438 54.18c.367 2.242.648 4.488.906 6.738a198.1 198.1 0 0 1 .355 3.379l.082.848.078.847c.047.57.082 1.149.078 1.735-.007.293-.023.59-.05.878-.032.293-.067.579-.102.856-.035.281-.074.559-.101.832-.004.066-.012.133-.012.203l-.012.203-.015.207a3.53 3.53 0 0 0-.008.203c-.032 1.102.066 2.215.195 3.332.125 1.121.273 2.25.34 3.391.023.57.047 1.145.008 1.715l-.012.215c-.004.07-.008.14-.016.21l-.047.426c-.011.07-.015.145-.027.215l-.039.207c-.027.14-.05.282-.078.422.02-.57.031-1.133-.012-1.695l-.015-.211c-.004-.066-.008-.137-.016-.207l-.043-.422-.023-.207-.028-.21-.058-.419c-.168-1.11-.395-2.215-.586-3.34-.043-.281-.09-.562-.133-.844-.035-.285-.078-.566-.106-.855l-.043-.43-.027-.433-.012-.219c-.004-.07-.004-.145-.007-.215l-.008-.437c0-.145.008-.293.015-.438l.008-.219.012-.218c.023-.293.055-.578.09-.86.031-.281.066-.558.09-.832.027-.273.039-.543.043-.816.011-.547-.02-1.098-.063-1.66l-.125-1.688a250.966 250.966 0 0 1-.223-3.39 145.93 145.93 0 0 1-.254-6.797"/></g><g clip-path="url(#k)"><path fill="#b388ff" d="m232.906 58.926-.027.441c0 .149-.004.297-.004.442.008.148.008.296.016.441.011.145.02.293.035.438.058.582.152 1.16.258 1.738.105.582.218 1.16.308 1.754.09.59.153 1.191.164 1.8.008.606-.031 1.211-.086 1.805-.054.594-.129 1.18-.183 1.758-.028.293-.051.578-.07.867-.012.29-.024.574-.02.86 0 .57.047 1.144.113 1.718.063.578.145 1.157.23 1.742.083.586.169 1.172.227 1.77.121 1.191.164 2.387.145 3.578a44.85 44.85 0 0 1-.211 3.555c-.059.59-.121 1.18-.2 1.765l-.113.88c-.043.292-.082.585-.129.878 0-2.367.082-4.73-.004-7.074a43.36 43.36 0 0 0-.097-1.75 31.36 31.36 0 0 0-.078-.871c-.016-.148-.028-.293-.043-.438l-.055-.433c-.07-.578-.164-1.156-.254-1.738-.09-.586-.18-1.172-.246-1.77a15.517 15.517 0 0 1-.11-1.812 16.15 16.15 0 0 1 .13-1.81c.074-.593.16-1.179.238-1.757.039-.289.074-.578.101-.867.016-.145.028-.29.04-.434l.023-.43c.043-1.144-.117-2.308-.223-3.492a15.974 15.974 0 0 1-.086-1.785c0-.148.012-.297.016-.445.008-.148.027-.297.039-.445.02-.149.043-.297.066-.442.028-.148.059-.293.09-.437"/></g></svg>