<svg xmlns="http://www.w3.org/2000/svg" xmlns:xlink="http://www.w3.org/1999/xlink" width="1926" zoomAndPan="magnify" viewBox="0 0 1444.5 376.499989" height="502" preserveAspectRatio="xMidYMid meet" version="1.0"><defs><clipPath id="7f41fc56e0"><path d="M 0.707031 0 L 1443.292969 0 L 1443.292969 376 L 0.707031 376 Z M 0.707031 0 " clip-rule="nonzero"/></clipPath><clipPath id="69d2fd478e"><path d="M 142.339844 285.746094 L 191.777344 285.746094 L 191.777344 332.933594 L 142.339844 332.933594 Z M 142.339844 285.746094 " clip-rule="nonzero"/></clipPath><clipPath id="a3e3763a76"><path d="M 496.210938 38.183594 L 596.136719 38.183594 L 596.136719 65.828125 L 496.210938 65.828125 Z M 496.210938 38.183594 " clip-rule="nonzero"/></clipPath><clipPath id="e3586d2687"><path d="M 548 37.601562 L 555 37.601562 L 555 46 L 548 46 Z M 548 37.601562 " clip-rule="nonzero"/></clipPath><clipPath id="c3ac0e12c3"><path d="M 1035.003906 231.421875 L 1112 231.421875 L 1112 286 L 1035.003906 286 Z M 1035.003906 231.421875 " clip-rule="nonzero"/></clipPath><clipPath id="1e4a26b882"><path d="M 1246.179688 121.105469 L 1271.648438 121.105469 L 1271.648438 145 L 1246.179688 145 Z M 1246.179688 121.105469 " clip-rule="nonzero"/></clipPath><clipPath id="7170504922"><path d="M 30 63 L 48.03125 63 L 48.03125 103.328125 L 30 103.328125 Z M 30 63 " clip-rule="nonzero"/></clipPath><clipPath id="6b96ab8e31"><path d="M 29.304688 37 L 31 37 L 31 66 L 29.304688 66 Z M 29.304688 37 " clip-rule="nonzero"/></clipPath><clipPath id="835c19d04b"><path d="M 41 32.171875 L 44 32.171875 L 44 60 L 41 60 Z M 41 32.171875 " clip-rule="nonzero"/></clipPath></defs><g clip-path="url(#7f41fc56e0)"><path fill="#ffffff" d="M 0.707031 0 L 1443.292969 0 L 1443.292969 376 L 0.707031 376 Z M 0.707031 0 " fill-opacity="1" fill-rule="nonzero"/><path fill="#e2d1ff" d="M 0.707031 0 L 1443.292969 0 L 1443.292969 376 L 0.707031 376 Z M 0.707031 0 " fill-opacity="1" fill-rule="nonzero"/></g><g clip-path="url(#69d2fd478e)"><path fill="#b388ff" d="M 142.382812 308.167969 C 142.402344 308.527344 142.421875 308.886719 142.457031 309.246094 C 142.515625 309.960938 142.609375 310.679688 142.726562 311.390625 C 142.789062 311.75 142.855469 312.105469 142.933594 312.460938 C 143.011719 312.8125 143.097656 313.167969 143.195312 313.519531 C 143.386719 314.226562 143.628906 314.929688 143.933594 315.617188 C 144.089844 315.960938 144.261719 316.300781 144.464844 316.636719 L 145.007812 317.535156 C 145.367188 318.136719 145.746094 318.75 146.15625 319.351562 C 146.570312 319.949219 147.015625 320.539062 147.507812 321.089844 C 148 321.648438 148.535156 322.164062 149.109375 322.640625 C 149.679688 323.117188 150.289062 323.546875 150.917969 323.929688 C 151.546875 324.316406 152.195312 324.65625 152.859375 324.960938 C 153.523438 325.265625 154.199219 325.539062 154.882812 325.773438 C 154.96875 325.804688 155.054688 325.835938 155.136719 325.867188 L 155.394531 325.949219 L 155.652344 326.035156 C 155.738281 326.0625 155.828125 326.09375 155.910156 326.117188 L 156.429688 326.273438 L 156.5625 326.3125 L 156.691406 326.347656 L 156.953125 326.417969 L 157.210938 326.488281 L 157.476562 326.558594 C 157.65625 326.601562 157.832031 326.640625 158.007812 326.683594 C 158.363281 326.765625 158.714844 326.835938 159.070312 326.898438 C 160.328125 327.128906 161.585938 327.292969 162.851562 327.410156 C 162.859375 327.425781 162.871094 327.441406 162.875 327.457031 C 162.941406 327.59375 162.992188 327.726562 163.03125 327.863281 C 163.105469 328.132812 163.125 328.398438 163.085938 328.664062 C 163.046875 328.933594 162.949219 329.203125 162.796875 329.46875 C 162.644531 329.734375 162.445312 329.992188 162.210938 330.238281 C 162.109375 330.347656 162.003906 330.492188 161.925781 330.675781 C 161.90625 330.722656 161.890625 330.769531 161.878906 330.820312 C 161.863281 330.871094 161.851562 330.925781 161.84375 330.976562 C 161.835938 331.027344 161.832031 331.082031 161.832031 331.136719 C 161.832031 331.191406 161.835938 331.242188 161.839844 331.296875 C 161.863281 331.511719 161.933594 331.695312 162.027344 331.839844 C 162.117188 331.988281 162.21875 332.101562 162.328125 332.191406 C 162.433594 332.285156 162.542969 332.355469 162.652344 332.414062 C 162.761719 332.472656 162.871094 332.515625 162.984375 332.550781 C 163.097656 332.585938 163.210938 332.605469 163.324219 332.617188 C 163.4375 332.628906 163.550781 332.628906 163.664062 332.625 C 163.777344 332.613281 163.890625 332.597656 163.996094 332.570312 L 164.015625 332.566406 L 164.027344 332.5625 L 164.050781 332.558594 L 164.097656 332.542969 L 164.378906 332.472656 L 164.5625 332.421875 C 164.808594 332.351562 165.050781 332.273438 165.292969 332.195312 C 166.261719 331.878906 167.203125 331.488281 168.113281 331.019531 C 168.570312 330.785156 169.015625 330.53125 169.453125 330.25 C 169.886719 329.976562 170.308594 329.671875 170.71875 329.339844 C 171.125 329.003906 171.519531 328.644531 171.882812 328.238281 C 172.0625 328.039062 172.234375 327.820312 172.398438 327.59375 C 172.464844 327.496094 172.535156 327.394531 172.601562 327.292969 L 172.683594 327.28125 L 172.949219 327.25 L 173.214844 327.210938 L 173.746094 327.136719 L 174.277344 327.050781 C 174.363281 327.035156 174.453125 327.023438 174.542969 327.003906 L 174.804688 326.953125 C 174.980469 326.921875 175.15625 326.886719 175.332031 326.855469 L 175.859375 326.742188 C 175.949219 326.722656 176.035156 326.707031 176.125 326.683594 L 176.386719 326.621094 C 177.089844 326.460938 177.785156 326.261719 178.476562 326.042969 L 178.992188 325.875 L 179.117188 325.832031 L 179.246094 325.785156 L 179.5 325.691406 C 179.84375 325.570312 180.175781 325.433594 180.515625 325.296875 L 180.578125 325.269531 L 180.644531 325.242188 L 180.769531 325.191406 L 181.015625 325.078125 L 181.265625 324.964844 C 181.347656 324.925781 181.429688 324.882812 181.511719 324.84375 C 181.675781 324.761719 181.839844 324.683594 182.003906 324.597656 L 182.484375 324.335938 C 182.644531 324.25 182.804688 324.152344 182.960938 324.058594 L 183.199219 323.914062 L 183.316406 323.84375 L 183.429688 323.765625 L 183.890625 323.460938 L 183.949219 323.421875 L 184.007812 323.378906 L 184.121094 323.296875 L 184.238281 323.214844 C 184.277344 323.1875 184.3125 323.160156 184.351562 323.128906 C 184.5 323.015625 184.648438 322.902344 184.789062 322.78125 C 184.863281 322.71875 184.9375 322.664062 185.003906 322.601562 L 185.214844 322.417969 C 185.285156 322.355469 185.355469 322.292969 185.421875 322.230469 L 185.625 322.039062 L 185.820312 321.84375 L 185.921875 321.746094 L 186.019531 321.648438 C 186.53125 321.113281 187.007812 320.550781 187.441406 319.960938 C 187.878906 319.371094 188.273438 318.757812 188.640625 318.125 C 189.003906 317.496094 189.332031 316.84375 189.628906 316.179688 C 190.222656 314.859375 190.6875 313.480469 191.035156 312.082031 C 191.730469 309.277344 191.953125 306.363281 191.679688 303.492188 C 191.539062 302.054688 191.273438 300.628906 190.875 299.238281 C 190.472656 297.847656 189.9375 296.492188 189.265625 295.210938 C 189.222656 295.128906 189.179688 295.050781 189.136719 294.96875 L 189.007812 294.730469 C 188.984375 294.691406 188.964844 294.652344 188.9375 294.609375 L 188.867188 294.488281 L 188.792969 294.367188 L 188.757812 294.304688 L 188.71875 294.246094 L 188.5625 294.007812 C 188.539062 293.96875 188.511719 293.929688 188.484375 293.894531 L 188.402344 293.777344 C 188.296875 293.625 188.179688 293.476562 188.070312 293.328125 C 188.042969 293.292969 188.011719 293.257812 187.980469 293.21875 L 187.894531 293.113281 L 187.804688 293.007812 C 187.773438 292.972656 187.746094 292.933594 187.714844 292.902344 L 187.527344 292.691406 C 187.5 292.660156 187.46875 292.621094 187.433594 292.589844 L 187.335938 292.488281 L 187.148438 292.289062 C 187.082031 292.222656 187.015625 292.160156 186.949219 292.09375 C 186.882812 292.03125 186.820312 291.964844 186.753906 291.902344 L 186.550781 291.71875 C 186.003906 291.222656 185.425781 290.777344 184.828125 290.363281 C 184.226562 289.949219 183.605469 289.578125 182.964844 289.238281 L 182.722656 289.109375 L 182.480469 288.984375 L 181.996094 288.75 L 181.503906 288.523438 C 181.421875 288.484375 181.339844 288.453125 181.257812 288.414062 L 181.007812 288.308594 L 180.757812 288.207031 L 180.507812 288.109375 L 180.253906 288.011719 C 180.171875 287.980469 180.089844 287.945312 180.003906 287.917969 L 179.496094 287.738281 C 179.414062 287.707031 179.328125 287.679688 179.242188 287.648438 L 178.988281 287.5625 L 178.734375 287.480469 C 178.648438 287.453125 178.5625 287.425781 178.476562 287.398438 L 177.960938 287.246094 L 177.445312 287.101562 L 177.1875 287.03125 C 177.105469 287.011719 177.015625 286.992188 176.929688 286.96875 L 176.410156 286.839844 C 176.238281 286.800781 176.0625 286.761719 175.886719 286.726562 C 175.539062 286.644531 175.191406 286.582031 174.839844 286.511719 C 174.664062 286.476562 174.492188 286.449219 174.316406 286.417969 L 173.792969 286.324219 L 173.265625 286.246094 L 173 286.207031 L 172.871094 286.1875 L 172.738281 286.167969 L 172.207031 286.101562 L 171.945312 286.066406 C 171.855469 286.054688 171.769531 286.050781 171.679688 286.039062 L 171.148438 285.988281 C 171.0625 285.976562 170.972656 285.96875 170.886719 285.960938 L 170.621094 285.933594 L 170.089844 285.890625 L 169.5625 285.851562 C 169.207031 285.824219 168.851562 285.8125 168.5 285.792969 C 168.410156 285.785156 168.324219 285.78125 168.230469 285.78125 L 167.699219 285.765625 C 167.609375 285.761719 167.523438 285.757812 167.429688 285.757812 C 167.078125 285.753906 166.722656 285.746094 166.367188 285.75 L 165.832031 285.753906 L 165.300781 285.765625 L 165.03125 285.769531 L 164.765625 285.78125 L 164.230469 285.808594 C 163.523438 285.851562 162.8125 285.898438 162.101562 285.976562 C 161.746094 286.011719 161.394531 286.058594 161.039062 286.105469 L 160.90625 286.121094 L 160.773438 286.144531 L 160.511719 286.183594 L 160.246094 286.222656 L 160.113281 286.246094 L 159.984375 286.261719 L 159.457031 286.351562 L 159.328125 286.378906 L 159.195312 286.40625 L 158.933594 286.457031 L 158.667969 286.507812 L 158.539062 286.535156 L 158.40625 286.566406 L 157.886719 286.683594 C 157.191406 286.851562 156.496094 287.03125 155.816406 287.25 C 155.472656 287.351562 155.132812 287.472656 154.792969 287.585938 C 154.621094 287.648438 154.457031 287.710938 154.285156 287.777344 L 154.035156 287.871094 L 153.785156 287.972656 C 153.617188 288.042969 153.453125 288.109375 153.285156 288.179688 L 152.789062 288.402344 C 152.625 288.46875 152.464844 288.550781 152.300781 288.632812 L 151.9375 288.808594 L 151.816406 288.875 L 151.335938 289.125 L 151.21875 289.1875 L 151.101562 289.257812 L 150.863281 289.390625 L 150.628906 289.527344 L 150.398438 289.671875 L 150.167969 289.8125 L 150.050781 289.886719 L 149.992188 289.921875 L 149.9375 289.960938 L 149.484375 290.265625 L 149.371094 290.34375 L 149.261719 290.421875 L 149.042969 290.585938 L 148.820312 290.746094 C 148.746094 290.800781 148.675781 290.859375 148.605469 290.914062 C 148.460938 291.023438 148.320312 291.136719 148.175781 291.25 L 147.765625 291.609375 L 147.660156 291.699219 C 147.628906 291.726562 147.59375 291.757812 147.5625 291.792969 L 147.359375 291.980469 L 147.160156 292.167969 L 147.113281 292.214844 L 147.0625 292.269531 L 146.964844 292.367188 C 146.832031 292.5 146.707031 292.640625 146.578125 292.777344 C 146.085938 293.339844 145.648438 293.941406 145.265625 294.574219 C 145.070312 294.886719 144.894531 295.210938 144.726562 295.535156 C 144.644531 295.699219 144.558594 295.863281 144.484375 296.027344 C 144.445312 296.109375 144.402344 296.191406 144.367188 296.277344 L 144.257812 296.53125 C 144.222656 296.613281 144.1875 296.695312 144.152344 296.78125 C 144.117188 296.867188 144.082031 296.949219 144.050781 297.03125 L 143.949219 297.289062 L 143.902344 297.414062 L 143.855469 297.542969 L 143.761719 297.796875 L 143.671875 298.054688 C 143.613281 298.226562 143.5625 298.402344 143.507812 298.574219 C 143.289062 299.265625 143.113281 299.964844 142.964844 300.671875 C 142.8125 301.378906 142.695312 302.089844 142.601562 302.800781 C 142.507812 303.515625 142.445312 304.230469 142.402344 304.945312 C 142.378906 305.304688 142.367188 305.664062 142.359375 306.023438 C 142.355469 306.382812 142.351562 306.742188 142.355469 307.101562 C 142.355469 307.453125 142.367188 307.808594 142.382812 308.167969 Z M 143.953125 306.042969 C 143.960938 305.703125 143.96875 305.363281 143.984375 305.023438 C 144.019531 304.34375 144.074219 303.664062 144.15625 302.988281 C 144.238281 302.316406 144.339844 301.644531 144.476562 300.980469 C 144.613281 300.316406 144.769531 299.65625 144.964844 299.011719 C 145.011719 298.851562 145.0625 298.6875 145.117188 298.527344 L 145.195312 298.289062 L 145.28125 298.050781 L 145.367188 297.816406 L 145.457031 297.578125 C 145.488281 297.5 145.519531 297.425781 145.550781 297.34375 C 145.582031 297.265625 145.609375 297.191406 145.648438 297.113281 L 145.746094 296.882812 C 145.78125 296.808594 145.816406 296.734375 145.851562 296.65625 C 145.917969 296.503906 145.992188 296.355469 146.066406 296.207031 C 146.21875 295.910156 146.371094 295.621094 146.546875 295.335938 C 146.882812 294.769531 147.265625 294.238281 147.691406 293.742188 C 147.800781 293.621094 147.90625 293.5 148.023438 293.382812 L 148.105469 293.296875 L 148.148438 293.253906 L 148.195312 293.210938 L 148.378906 293.039062 L 148.558594 292.867188 C 148.589844 292.839844 148.621094 292.808594 148.648438 292.78125 L 148.746094 292.699219 L 149.121094 292.367188 C 149.246094 292.261719 149.382812 292.15625 149.511719 292.050781 C 149.578125 292 149.640625 291.945312 149.707031 291.894531 L 149.910156 291.742188 L 150.117188 291.589844 L 150.214844 291.515625 L 150.320312 291.441406 L 150.734375 291.15625 L 150.785156 291.121094 L 150.839844 291.089844 L 150.945312 291.019531 L 151.160156 290.886719 L 151.371094 290.753906 L 151.589844 290.628906 L 151.808594 290.5 L 152.027344 290.375 L 152.472656 290.136719 L 152.585938 290.074219 L 152.699219 290.015625 L 152.925781 289.90625 C 153.078125 289.828125 153.230469 289.753906 153.386719 289.6875 L 153.847656 289.476562 C 154.003906 289.410156 154.160156 289.347656 154.320312 289.28125 L 154.554688 289.183594 L 154.796875 289.09375 C 154.953125 289.03125 155.113281 288.972656 155.273438 288.914062 C 155.59375 288.804688 155.910156 288.6875 156.238281 288.589844 C 156.886719 288.378906 157.546875 288.203125 158.210938 288.042969 L 158.710938 287.925781 L 158.835938 287.898438 L 158.960938 287.875 L 159.210938 287.824219 L 159.464844 287.773438 L 159.585938 287.75 L 159.714844 287.726562 L 160.222656 287.636719 L 160.347656 287.613281 L 160.476562 287.597656 L 160.984375 287.519531 L 161.242188 287.480469 C 161.582031 287.4375 161.921875 287.390625 162.261719 287.355469 C 162.945312 287.277344 163.632812 287.230469 164.316406 287.1875 L 165.089844 287.152344 L 165.347656 287.144531 L 165.863281 287.132812 L 166.378906 287.128906 C 167.757812 287.121094 169.132812 287.183594 170.503906 287.304688 L 170.761719 287.328125 C 170.847656 287.332031 170.933594 287.34375 171.019531 287.355469 L 171.53125 287.410156 C 171.617188 287.417969 171.703125 287.425781 171.789062 287.4375 L 172.042969 287.46875 L 172.558594 287.535156 L 172.683594 287.550781 L 172.8125 287.570312 L 173.066406 287.609375 L 173.578125 287.683594 L 174.082031 287.773438 C 174.253906 287.804688 174.421875 287.832031 174.589844 287.863281 C 174.925781 287.929688 175.261719 287.996094 175.597656 288.074219 C 175.761719 288.113281 175.929688 288.144531 176.097656 288.183594 L 176.59375 288.308594 C 176.675781 288.332031 176.761719 288.347656 176.84375 288.375 L 177.089844 288.441406 L 177.582031 288.578125 L 178.074219 288.726562 C 178.15625 288.753906 178.238281 288.777344 178.320312 288.804688 L 178.804688 288.96875 C 178.886719 288.996094 178.964844 289.019531 179.046875 289.050781 L 179.527344 289.222656 C 179.609375 289.25 179.683594 289.285156 179.765625 289.3125 L 180.242188 289.5 L 180.472656 289.601562 L 180.707031 289.703125 C 180.785156 289.734375 180.863281 289.769531 180.941406 289.804688 L 181.402344 290.015625 L 181.855469 290.242188 L 182.082031 290.359375 L 182.304688 290.476562 C 182.898438 290.800781 183.476562 291.148438 184.027344 291.53125 C 184.582031 291.914062 185.105469 292.328125 185.59375 292.777344 L 185.777344 292.949219 C 185.835938 293.003906 185.894531 293.0625 185.953125 293.121094 C 186.007812 293.179688 186.070312 293.234375 186.128906 293.296875 L 186.296875 293.476562 L 186.382812 293.566406 C 186.410156 293.597656 186.4375 293.625 186.464844 293.65625 L 186.628906 293.84375 C 186.65625 293.871094 186.683594 293.90625 186.707031 293.9375 L 186.863281 294.125 C 186.890625 294.15625 186.917969 294.1875 186.941406 294.222656 C 187.039062 294.351562 187.140625 294.480469 187.230469 294.617188 L 187.296875 294.714844 C 187.324219 294.75 187.34375 294.78125 187.363281 294.816406 L 187.496094 295.019531 L 187.558594 295.121094 L 187.621094 295.226562 L 187.679688 295.328125 C 187.703125 295.363281 187.71875 295.402344 187.742188 295.4375 L 187.863281 295.660156 C 187.902344 295.730469 187.941406 295.808594 187.980469 295.882812 C 188.601562 297.082031 189.089844 298.34375 189.453125 299.644531 C 189.816406 300.945312 190.050781 302.285156 190.167969 303.628906 C 190.402344 306.328125 190.160156 309.070312 189.484375 311.6875 C 189.316406 312.34375 189.121094 312.992188 188.898438 313.628906 C 188.671875 314.265625 188.417969 314.890625 188.136719 315.5 C 187.851562 316.113281 187.542969 316.707031 187.203125 317.289062 C 186.863281 317.863281 186.496094 318.421875 186.09375 318.953125 C 185.296875 320.015625 184.371094 320.976562 183.324219 321.753906 C 183.292969 321.777344 183.261719 321.800781 183.226562 321.824219 L 183.128906 321.894531 L 183.027344 321.964844 L 182.980469 322 L 182.925781 322.035156 L 182.511719 322.304688 L 182.410156 322.371094 L 182.304688 322.433594 L 182.085938 322.5625 C 181.945312 322.648438 181.800781 322.734375 181.652344 322.808594 L 181.214844 323.046875 C 181.066406 323.117188 180.914062 323.191406 180.765625 323.261719 C 180.6875 323.300781 180.617188 323.335938 180.539062 323.371094 L 180.078125 323.574219 L 179.964844 323.625 L 179.847656 323.671875 C 179.535156 323.796875 179.226562 323.925781 178.910156 324.035156 L 178.671875 324.117188 L 178.554688 324.160156 L 178.433594 324.199219 L 177.949219 324.359375 C 177.304688 324.554688 176.652344 324.738281 175.992188 324.886719 L 175.742188 324.945312 C 175.660156 324.960938 175.574219 324.980469 175.492188 324.996094 L 174.996094 325.097656 C 174.828125 325.132812 174.664062 325.160156 174.496094 325.191406 L 174.242188 325.238281 C 174.160156 325.253906 174.078125 325.265625 173.992188 325.277344 L 173.488281 325.359375 L 172.726562 325.464844 L 172.472656 325.496094 L 171.964844 325.554688 C 171.683594 325.589844 171.421875 325.753906 171.269531 326.019531 L 171.265625 326.03125 C 171.167969 326.203125 171.0625 326.375 170.941406 326.546875 C 170.816406 326.710938 170.6875 326.878906 170.542969 327.035156 C 170.257812 327.355469 169.933594 327.65625 169.585938 327.9375 C 169.238281 328.21875 168.867188 328.480469 168.484375 328.726562 C 168.097656 328.96875 167.699219 329.195312 167.289062 329.410156 C 166.46875 329.832031 165.613281 330.183594 164.730469 330.472656 C 164.566406 330.527344 164.398438 330.578125 164.230469 330.628906 C 164.285156 330.546875 164.335938 330.457031 164.390625 330.371094 C 164.632812 329.945312 164.816406 329.457031 164.894531 328.933594 C 164.933594 328.675781 164.945312 328.40625 164.925781 328.144531 C 164.90625 327.878906 164.859375 327.617188 164.789062 327.375 C 164.71875 327.125 164.625 326.886719 164.519531 326.667969 C 164.410156 326.445312 164.285156 326.234375 164.15625 326.039062 C 164.007812 325.820312 163.765625 325.664062 163.480469 325.644531 L 163.476562 325.644531 C 162.792969 325.589844 162.109375 325.519531 161.433594 325.433594 C 160.753906 325.351562 160.074219 325.25 159.410156 325.125 C 159.074219 325.066406 158.742188 325 158.414062 324.925781 C 158.25 324.890625 158.085938 324.851562 157.925781 324.808594 L 157.804688 324.78125 L 157.679688 324.746094 L 157.1875 324.613281 L 157.0625 324.578125 L 156.941406 324.542969 L 156.453125 324.402344 C 156.371094 324.375 156.292969 324.351562 156.210938 324.324219 L 155.726562 324.167969 C 155.644531 324.140625 155.566406 324.113281 155.488281 324.085938 C 154.847656 323.867188 154.226562 323.617188 153.617188 323.34375 C 153.007812 323.066406 152.414062 322.761719 151.851562 322.421875 C 151.285156 322.082031 150.746094 321.703125 150.238281 321.285156 C 149.734375 320.871094 149.261719 320.417969 148.820312 319.929688 C 148.378906 319.441406 147.972656 318.917969 147.589844 318.367188 C 147.207031 317.816406 146.84375 317.238281 146.480469 316.644531 L 145.929688 315.753906 C 145.769531 315.488281 145.621094 315.207031 145.488281 314.917969 C 145.21875 314.332031 145 313.707031 144.816406 313.066406 C 144.449219 311.78125 144.226562 310.441406 144.09375 309.09375 C 144.0625 308.757812 144.035156 308.417969 144.015625 308.078125 C 143.996094 307.738281 143.980469 307.398438 143.976562 307.058594 C 143.953125 306.722656 143.953125 306.382812 143.953125 306.042969 Z M 143.953125 306.042969 " fill-opacity="1" fill-rule="nonzero"/></g><path fill="#b388ff" d="M 157.640625 306.371094 C 157.207031 305.644531 157.058594 305.503906 156.347656 305.8125 C 155.882812 306.015625 155.746094 306.074219 155.652344 306.597656 C 155.527344 307.335938 156.269531 312.316406 156.046875 312.414062 C 155.828125 312.511719 154.488281 311.113281 153.566406 310.101562 C 153.167969 309.648438 152.6875 309.1875 152.21875 308.808594 C 151.804688 308.460938 151.632812 308.335938 151.03125 308.59375 C 150.429688 308.855469 150.375 309 150.40625 309.566406 C 150.445312 310.492188 152.9375 316.140625 153.46875 317.351562 C 153.855469 318.246094 154.007812 318.484375 154.777344 318.148438 C 155.570312 317.804688 155.566406 317.589844 155.082031 316.472656 C 154.335938 314.769531 153.039062 311.957031 153.238281 311.871094 C 153.496094 311.757812 154.933594 313.625 156.167969 314.382812 C 156.484375 314.578125 156.785156 314.460938 156.992188 314.375 C 157.164062 314.296875 157.53125 314.109375 157.46875 313.496094 C 157.277344 311.890625 157.070312 309.109375 157.214844 309.046875 C 157.363281 308.984375 158.5 311.632812 159.40625 313.703125 C 160.035156 315.148438 160.175781 315.433594 161.03125 315.0625 C 161.53125 314.84375 161.40625 314.550781 160.890625 313.375 C 160.183594 311.746094 159.523438 310.402344 158.777344 308.789062 C 158.40625 307.992188 158.09375 307.136719 157.640625 306.371094 Z M 157.640625 306.371094 " fill-opacity="1" fill-rule="nonzero"/><path fill="#b388ff" d="M 163.488281 313.46875 C 163.726562 314.023438 163.972656 314.015625 164.550781 313.765625 C 165.738281 313.246094 166.910156 312.664062 168.097656 312.144531 C 168.574219 311.933594 168.675781 311.761719 168.472656 311.296875 C 168.289062 310.882812 168.136719 310.859375 167.695312 311.050781 C 167.117188 311.304688 166.179688 311.714844 165.582031 312.015625 C 165.273438 312.179688 164.972656 312.019531 164.839844 311.714844 L 164.578125 311.113281 C 164.253906 310.378906 163.960938 309.632812 163.652344 308.890625 C 163.699219 308.828125 163.816406 308.761719 163.972656 308.695312 C 164.402344 308.507812 165.125 308.296875 165.566406 308.105469 C 166.054688 307.890625 166.242188 307.78125 166.0625 307.375 C 165.867188 306.925781 165.683594 306.941406 165.074219 307.210938 C 164.472656 307.46875 163.886719 307.757812 163.3125 308.078125 C 163.046875 307.46875 162.125 305.320312 162.238281 304.949219 C 162.261719 304.867188 162.4375 304.773438 162.695312 304.660156 C 163.195312 304.441406 164 304.179688 164.515625 303.953125 C 165.054688 303.722656 165.195312 303.542969 165.027344 303.152344 C 164.730469 302.476562 164.527344 302.246094 163.890625 302.523438 L 163.035156 302.894531 C 162.175781 303.269531 161.3125 303.660156 160.457031 304.035156 C 159.816406 304.308594 160.039062 304.78125 160.332031 305.527344 C 161.394531 308.230469 162.34375 310.847656 163.488281 313.46875 Z M 163.488281 313.46875 " fill-opacity="1" fill-rule="nonzero"/><path fill="#b388ff" d="M 173.328125 310.140625 C 175.738281 309.085938 175.523438 307.15625 174.230469 304.019531 C 172.925781 300.902344 171.628906 298.992188 169.167969 300.066406 C 166.582031 301.191406 166.546875 302.839844 168.117188 306.613281 C 169.695312 310.398438 170.648438 311.308594 173.328125 310.140625 Z M 169.765625 301.433594 C 171.054688 300.871094 171.992188 301.863281 173.152344 304.648438 C 174.3125 307.449219 174.367188 308.578125 173.09375 309.132812 C 171.820312 309.6875 171.0625 309.015625 169.78125 305.945312 C 168.503906 302.886719 168.480469 301.996094 169.765625 301.433594 Z M 169.765625 301.433594 " fill-opacity="1" fill-rule="nonzero"/><path fill="#b388ff" d="M 174.425781 299.257812 L 177.738281 306.015625 C 178.382812 307.324219 178.648438 307.601562 179.46875 307.246094 C 179.96875 307.027344 180.15625 306.683594 180.152344 306.144531 C 180.144531 305.460938 179.960938 304.769531 179.847656 304.105469 C 179.589844 302.6875 179.199219 300.484375 179.308594 300.4375 C 179.417969 300.386719 180.65625 302.253906 181.507812 303.441406 C 181.875 303.953125 182.199219 304.523438 182.691406 304.921875 C 183.238281 305.367188 183.449219 305.421875 184.070312 305.148438 C 184.878906 304.796875 184.714844 304.386719 184.328125 303.300781 L 181.765625 296.054688 C 181.71875 295.945312 181.667969 295.835938 181.609375 295.730469 C 181.265625 295.078125 181.027344 295.007812 180.527344 295.226562 C 179.953125 295.476562 180.445312 296.367188 180.890625 297.5 C 181.707031 299.535156 183.292969 303.199219 183.070312 303.296875 C 182.847656 303.394531 181.492188 301.214844 180.648438 300.011719 C 180.261719 299.464844 179.933594 298.878906 179.457031 298.417969 C 179.152344 298.117188 178.753906 297.910156 178.328125 298.097656 C 177.960938 298.257812 177.960938 298.738281 177.964844 299.070312 C 177.96875 299.679688 178.097656 300.28125 178.199219 300.878906 C 178.390625 302.050781 179.140625 304.242188 178.808594 304.386719 C 178.476562 304.53125 176.863281 300.496094 176.113281 298.464844 C 175.808594 297.636719 175.632812 297.363281 174.726562 297.757812 C 174.066406 298.046875 173.992188 298.308594 174.28125 298.972656 C 174.328125 299.066406 174.382812 299.160156 174.425781 299.257812 Z M 174.425781 299.257812 " fill-opacity="1" fill-rule="nonzero"/><path fill="#b388ff" d="M 151.847656 299.949219 C 151.742188 300.535156 151.8125 301.046875 152.0625 301.429688 C 152.484375 302.101562 152.96875 302.417969 153.546875 302.398438 C 153.996094 302.390625 154.441406 302.160156 154.828125 301.953125 C 154.859375 301.9375 154.890625 301.917969 154.921875 301.902344 L 154.972656 301.875 C 155.144531 301.78125 155.308594 301.699219 155.449219 301.644531 C 155.652344 301.574219 155.886719 301.519531 156.199219 301.46875 L 156.253906 301.457031 C 156.710938 301.359375 157.175781 301.265625 157.492188 300.941406 C 157.828125 300.589844 157.949219 300.035156 157.863281 299.253906 C 157.8125 298.75 157.457031 298.28125 156.832031 297.902344 C 155.882812 297.304688 154.527344 297.042969 153.8125 297.316406 C 153.332031 297.503906 152.875 297.886719 152.523438 298.390625 C 152.167969 298.890625 151.933594 299.445312 151.847656 299.949219 Z M 151.847656 299.949219 " fill-opacity="1" fill-rule="nonzero"/><path fill="#b388ff" d="M 150.664062 300.476562 C 150.785156 300.433594 150.90625 300.351562 151.027344 300.234375 C 151.378906 299.867188 151.476562 299.246094 151.269531 298.714844 C 151.109375 298.292969 150.804688 297.96875 150.425781 297.816406 C 150.171875 297.710938 149.910156 297.703125 149.675781 297.789062 C 149.667969 297.792969 149.660156 297.792969 149.652344 297.796875 C 149.046875 298.03125 148.769531 298.835938 149.042969 299.558594 C 149.320312 300.285156 150.046875 300.695312 150.664062 300.476562 Z M 150.664062 300.476562 " fill-opacity="1" fill-rule="nonzero"/><path fill="#b388ff" d="M 151.101562 297.460938 C 151.421875 297.636719 151.75 297.671875 152.027344 297.554688 L 152.027344 297.550781 C 152.152344 297.507812 152.273438 297.425781 152.394531 297.308594 C 152.742188 296.945312 152.84375 296.320312 152.636719 295.792969 L 152.636719 295.789062 C 152.511719 295.4375 152.257812 295.136719 151.945312 294.96875 C 151.636719 294.800781 151.324219 294.761719 151.054688 294.859375 C 151.042969 294.863281 151.027344 294.867188 151.015625 294.875 L 151.011719 294.875 C 150.40625 295.105469 150.128906 295.914062 150.402344 296.636719 C 150.535156 296.992188 150.785156 297.289062 151.101562 297.460938 Z M 151.101562 297.460938 " fill-opacity="1" fill-rule="nonzero"/><path fill="#b388ff" d="M 157.144531 297.5625 C 157.46875 297.738281 157.796875 297.773438 158.070312 297.65625 L 158.074219 297.65625 C 158.195312 297.613281 158.316406 297.53125 158.4375 297.414062 C 158.785156 297.046875 158.886719 296.421875 158.679688 295.894531 C 158.527344 295.519531 158.289062 295.234375 157.988281 295.070312 C 157.683594 294.902344 157.371094 294.863281 157.101562 294.960938 C 157.089844 294.96875 157.074219 294.96875 157.0625 294.976562 L 157.058594 294.976562 C 156.453125 295.210938 156.171875 296.015625 156.449219 296.738281 C 156.582031 297.09375 156.832031 297.390625 157.144531 297.5625 Z M 157.144531 297.5625 " fill-opacity="1" fill-rule="nonzero"/><path fill="#b388ff" d="M 154.1875 296.285156 C 154.511719 296.460938 154.839844 296.496094 155.113281 296.382812 L 155.117188 296.378906 C 155.238281 296.335938 155.359375 296.253906 155.480469 296.136719 C 155.601562 296.007812 155.6875 295.859375 155.742188 295.683594 L 155.746094 295.675781 C 155.871094 295.367188 155.863281 295 155.722656 294.617188 C 155.597656 294.265625 155.347656 293.964844 155.03125 293.792969 C 154.726562 293.625 154.414062 293.585938 154.144531 293.683594 C 154.132812 293.691406 154.117188 293.695312 154.105469 293.699219 L 154.101562 293.699219 C 153.496094 293.933594 153.214844 294.738281 153.492188 295.460938 C 153.625 295.816406 153.875 296.117188 154.1875 296.285156 Z M 154.1875 296.285156 " fill-opacity="1" fill-rule="nonzero"/><path fill="#b388ff" d="M 182.828125 314.5625 C 181.878906 313.964844 180.523438 313.699219 179.808594 313.972656 C 179.332031 314.160156 178.871094 314.542969 178.519531 315.046875 C 178.175781 315.546875 177.933594 316.101562 177.851562 316.605469 C 177.742188 317.191406 177.816406 317.703125 178.066406 318.085938 C 178.488281 318.757812 178.972656 319.074219 179.546875 319.054688 L 179.550781 319.054688 C 180 319.050781 180.445312 318.816406 180.832031 318.609375 C 180.863281 318.59375 180.890625 318.578125 180.925781 318.5625 L 180.976562 318.535156 C 181.148438 318.441406 181.3125 318.355469 181.453125 318.304688 C 181.652344 318.230469 181.890625 318.175781 182.203125 318.125 L 182.257812 318.113281 C 182.710938 318.019531 183.179688 317.921875 183.496094 317.601562 C 183.832031 317.25 183.953125 316.695312 183.867188 315.910156 C 183.808594 315.410156 183.453125 314.945312 182.828125 314.5625 Z M 182.828125 314.5625 " fill-opacity="1" fill-rule="nonzero"/><path fill="#b388ff" d="M 176.433594 314.472656 C 176.179688 314.371094 175.917969 314.359375 175.679688 314.445312 C 175.675781 314.449219 175.667969 314.453125 175.660156 314.457031 C 175.054688 314.6875 174.773438 315.496094 175.050781 316.21875 C 175.328125 316.941406 176.054688 317.355469 176.671875 317.132812 C 176.792969 317.089844 176.917969 317.007812 177.039062 316.890625 C 177.386719 316.527344 177.484375 315.902344 177.28125 315.375 C 177.117188 314.953125 176.808594 314.625 176.433594 314.472656 Z M 176.433594 314.472656 " fill-opacity="1" fill-rule="nonzero"/><path fill="#b388ff" d="M 178.035156 314.210938 C 178.15625 314.171875 178.277344 314.089844 178.398438 313.96875 C 178.746094 313.605469 178.847656 312.980469 178.640625 312.453125 L 178.640625 312.449219 C 178.515625 312.097656 178.265625 311.796875 177.949219 311.628906 C 177.644531 311.460938 177.332031 311.421875 177.0625 311.519531 C 177.050781 311.523438 177.035156 311.527344 177.023438 311.535156 L 177.019531 311.535156 C 176.414062 311.769531 176.132812 312.574219 176.410156 313.296875 C 176.535156 313.648438 176.785156 313.949219 177.101562 314.121094 C 177.421875 314.296875 177.75 314.332031 178.027344 314.214844 Z M 178.035156 314.210938 " fill-opacity="1" fill-rule="nonzero"/><path fill="#b388ff" d="M 184 311.726562 C 183.691406 311.5625 183.378906 311.523438 183.109375 311.621094 C 183.097656 311.625 183.082031 311.628906 183.070312 311.632812 L 183.066406 311.632812 C 182.460938 311.867188 182.179688 312.675781 182.457031 313.398438 C 182.585938 313.75 182.832031 314.050781 183.148438 314.222656 C 183.46875 314.398438 183.796875 314.429688 184.074219 314.316406 L 184.078125 314.3125 C 184.199219 314.269531 184.320312 314.1875 184.441406 314.070312 C 184.789062 313.707031 184.890625 313.082031 184.683594 312.554688 C 184.535156 312.175781 184.296875 311.890625 184 311.726562 Z M 184 311.726562 " fill-opacity="1" fill-rule="nonzero"/><path fill="#b388ff" d="M 180.191406 312.949219 C 180.511719 313.125 180.839844 313.15625 181.117188 313.042969 L 181.121094 313.039062 C 181.242188 312.996094 181.363281 312.914062 181.484375 312.796875 C 181.605469 312.667969 181.691406 312.519531 181.746094 312.34375 L 181.746094 312.339844 C 181.871094 312.027344 181.867188 311.660156 181.726562 311.277344 C 181.601562 310.925781 181.351562 310.625 181.035156 310.453125 C 180.730469 310.289062 180.417969 310.25 180.144531 310.34375 C 180.132812 310.351562 180.117188 310.355469 180.105469 310.359375 C 179.496094 310.59375 179.21875 311.402344 179.496094 312.121094 C 179.628906 312.476562 179.878906 312.773438 180.191406 312.949219 Z M 180.191406 312.949219 " fill-opacity="1" fill-rule="nonzero"/><g clip-path="url(#a3e3763a76)"><path fill="#b388ff" d="M 524.957031 56.527344 C 524.734375 56.980469 524.488281 57.429688 524.296875 57.894531 C 523.675781 59.414062 523.082031 60.945312 522.464844 62.46875 C 522.308594 62.859375 522.125 63.242188 521.933594 63.621094 C 521.757812 63.96875 521.457031 64.179688 521.082031 64.285156 C 520.472656 64.457031 519.859375 64.445312 519.253906 64.257812 C 518.734375 64.09375 518.378906 63.746094 518.128906 63.273438 C 517.714844 62.476562 517.46875 61.621094 517.421875 60.738281 C 517.351562 59.453125 517.304688 58.160156 517.363281 56.878906 C 517.476562 54.496094 517.660156 52.121094 517.835938 49.742188 C 517.976562 47.894531 518.160156 46.050781 518.300781 44.203125 C 518.347656 43.585938 518.332031 42.964844 518.328125 42.347656 C 518.328125 42.105469 518.28125 41.859375 518.242188 41.488281 C 518.0625 41.71875 517.941406 41.855469 517.835938 42.007812 C 517.03125 43.171875 516.375 44.425781 515.804688 45.71875 C 515.015625 47.492188 514.25 49.277344 513.464844 51.054688 C 513.300781 51.421875 513.097656 51.777344 512.902344 52.132812 C 512.683594 52.527344 512.328125 52.746094 511.898438 52.847656 C 511.300781 52.992188 510.707031 52.980469 510.117188 52.828125 C 509.503906 52.667969 509.050781 52.296875 508.726562 51.757812 C 508.246094 50.96875 507.871094 50.128906 507.648438 49.234375 C 507.28125 47.78125 506.953125 46.316406 506.609375 44.855469 C 506.585938 44.761719 506.554688 44.667969 506.4375 44.566406 C 506.382812 44.738281 506.320312 44.910156 506.273438 45.085938 C 505.835938 46.710938 505.605469 48.375 505.441406 50.042969 C 505.214844 52.328125 505 54.613281 504.84375 56.902344 C 504.695312 59.035156 504.695312 61.171875 504.863281 63.304688 C 504.875 63.445312 504.886719 63.585938 504.886719 63.730469 C 504.898438 64.28125 504.777344 64.464844 504.257812 64.617188 C 503.648438 64.796875 503.035156 64.785156 502.433594 64.585938 C 501.96875 64.433594 501.679688 64.089844 501.460938 63.664062 C 500.761719 62.328125 500.234375 60.929688 499.816406 59.484375 C 499.070312 56.882812 498.566406 54.230469 498.035156 51.582031 C 497.558594 49.210938 497.042969 46.847656 496.589844 44.476562 C 496.402344 43.488281 496.316406 42.484375 496.21875 41.484375 C 496.191406 41.175781 496.257812 40.851562 496.3125 40.539062 C 496.429688 39.917969 496.824219 39.519531 497.441406 39.4375 C 497.910156 39.375 498.398438 39.378906 498.859375 39.445312 C 499.457031 39.535156 499.902344 39.90625 500.136719 40.457031 C 500.378906 41.023438 500.605469 41.601562 500.761719 42.195312 C 501.742188 45.917969 502.542969 49.683594 503.304688 53.453125 C 503.328125 53.570312 503.367188 53.683594 503.488281 53.796875 C 503.570312 53.1875 503.652344 52.574219 503.734375 51.964844 C 504.050781 49.621094 504.339844 47.273438 504.699219 44.933594 C 504.859375 43.875 505.164062 42.835938 505.390625 41.78125 C 505.53125 41.132812 505.933594 40.769531 506.566406 40.644531 C 508.554688 40.25 509.910156 40.894531 510.722656 42.21875 C 511.070312 42.785156 511.34375 43.410156 511.566406 44.035156 C 512.03125 45.339844 512.285156 46.691406 512.429688 48.066406 C 512.445312 48.242188 512.46875 48.417969 512.496094 48.59375 C 512.5 48.640625 512.53125 48.6875 512.578125 48.792969 C 512.695312 48.589844 512.796875 48.429688 512.882812 48.261719 C 513.582031 46.878906 514.253906 45.476562 514.988281 44.105469 C 515.644531 42.878906 516.386719 41.695312 517.066406 40.480469 C 517.546875 39.621094 518.300781 39.316406 519.230469 39.320312 C 520.785156 39.328125 521.796875 40.019531 522.355469 41.472656 C 522.75 42.492188 522.890625 43.566406 522.894531 44.644531 C 522.894531 46.179688 522.847656 47.714844 522.757812 49.25 C 522.628906 51.363281 522.457031 53.476562 522.277344 55.585938 C 522.175781 56.78125 522.023438 57.972656 521.894531 59.167969 C 521.867188 59.421875 521.847656 59.675781 521.925781 59.957031 C 522.007812 59.808594 522.097656 59.667969 522.179688 59.519531 C 522.734375 58.496094 523.269531 57.460938 523.851562 56.449219 C 524.113281 55.996094 524.453125 55.582031 524.789062 55.171875 C 524.945312 54.984375 525.019531 54.804688 525.035156 54.5625 C 525.171875 52.097656 526.054688 49.921875 527.648438 48.046875 C 529.261719 46.144531 531.34375 45.273438 533.828125 45.347656 C 534.878906 45.378906 535.839844 45.695312 536.679688 46.339844 C 537.730469 47.148438 538.09375 48.234375 537.671875 49.488281 C 537.113281 51.15625 536.015625 52.382812 534.441406 53.171875 C 533.304688 53.742188 532.082031 53.992188 530.828125 54.125 C 530.6875 54.140625 530.550781 54.15625 530.425781 54.171875 C 530.390625 54.214844 530.351562 54.238281 530.347656 54.265625 C 530.222656 55.917969 530.285156 57.550781 530.902344 59.117188 C 531 59.359375 531.125 59.597656 531.261719 59.824219 C 531.875 60.847656 532.796875 61.226562 533.960938 61.085938 C 535.101562 60.949219 536.148438 60.546875 537.113281 59.929688 C 537.648438 59.589844 538.164062 59.210938 538.695312 58.867188 C 539.539062 58.316406 540.390625 57.78125 541.238281 57.242188 C 541.40625 57.136719 541.535156 57.042969 541.582031 56.816406 C 541.996094 54.753906 543.257812 53.359375 545.097656 52.445312 C 545.902344 52.046875 546.730469 51.695312 547.542969 51.3125 C 548.507812 50.851562 549.382812 50.257812 550.171875 49.546875 C 550.976562 48.820312 551.867188 48.292969 552.957031 48.125 C 554.171875 47.9375 555.273438 48.226562 556.140625 49.0625 C 556.683594 49.585938 557.101562 50.277344 557.464844 50.953125 C 557.890625 51.742188 558.164062 52.613281 558.5625 53.417969 C 558.90625 54.109375 559.328125 54.765625 559.734375 55.421875 C 559.996094 55.84375 560.28125 56.246094 560.570312 56.648438 C 561.449219 57.859375 561.660156 59.246094 561.558594 60.675781 C 561.515625 61.3125 561.230469 61.933594 561.035156 62.632812 C 561.710938 63.378906 562.5625 63.890625 563.703125 63.824219 C 565.027344 63.746094 566.207031 63.273438 567.304688 62.554688 C 568.542969 61.738281 569.574219 60.699219 570.488281 59.546875 C 572.136719 57.464844 573.402344 55.171875 574.222656 52.644531 C 574.308594 52.382812 574.347656 52.089844 574.328125 51.820312 C 574.179688 49.6875 574.128906 47.550781 574.214844 45.414062 C 574.226562 45.113281 574.265625 44.816406 574.3125 44.519531 C 574.378906 44.105469 574.613281 43.804688 575.003906 43.648438 C 576.175781 43.179688 577.347656 43.183594 578.496094 43.726562 C 578.972656 43.949219 579.269531 44.351562 579.386719 44.851562 C 579.554688 45.589844 579.71875 46.335938 579.8125 47.085938 C 580.359375 51.34375 580.597656 55.628906 580.796875 59.917969 C 580.847656 61.078125 580.984375 62.238281 581.089844 63.398438 C 581.101562 63.53125 581.152344 63.660156 581.210938 63.898438 C 581.421875 63.554688 581.601562 63.316406 581.722656 63.046875 C 582.261719 61.859375 582.8125 60.675781 583.300781 59.464844 C 584.21875 57.1875 584.894531 54.824219 585.539062 52.457031 C 585.636719 52.101562 585.75 51.75 585.863281 51.394531 C 585.992188 50.996094 586.289062 50.808594 586.6875 50.746094 C 587.539062 50.617188 588.101562 50.890625 588.539062 51.652344 C 589.050781 52.554688 589.304688 53.546875 589.578125 54.535156 C 589.992188 56.03125 590.394531 57.53125 590.859375 59.007812 C 591.0625 59.660156 591.402344 60.269531 591.703125 60.886719 C 591.808594 61.101562 591.988281 61.277344 592.164062 61.507812 C 592.65625 60.820312 592.84375 60.085938 592.953125 59.335938 C 593.035156 58.761719 593.09375 58.175781 593.082031 57.597656 C 593.050781 55.832031 593 54.066406 592.921875 52.304688 C 592.855469 50.75 592.75 49.199219 592.65625 47.648438 C 592.578125 46.433594 592.441406 45.21875 592.414062 44.003906 C 592.378906 42.363281 592.414062 40.71875 592.445312 39.078125 C 592.460938 38.496094 592.671875 38.304688 593.253906 38.222656 C 593.445312 38.199219 593.640625 38.1875 593.832031 38.207031 C 594.53125 38.265625 594.824219 38.476562 594.984375 39.164062 C 595.21875 40.15625 595.378906 41.171875 595.609375 42.167969 C 596.011719 43.921875 596.054688 45.707031 596.109375 47.484375 C 596.195312 50.558594 596.074219 53.632812 595.804688 56.695312 C 595.699219 57.910156 595.460938 59.105469 595.0625 60.265625 C 594.949219 60.597656 594.8125 60.925781 594.652344 61.238281 C 593.839844 62.84375 591.976562 63.3125 590.480469 62.289062 C 589.980469 61.945312 589.59375 61.484375 589.257812 60.984375 C 588.453125 59.796875 587.964844 58.480469 587.664062 57.085938 C 587.382812 55.792969 587.105469 54.5 586.824219 53.207031 C 586.804688 53.109375 586.773438 53.011719 586.640625 52.894531 C 586.558594 53.132812 586.464844 53.363281 586.394531 53.601562 C 585.613281 56.222656 584.839844 58.847656 584.050781 61.464844 C 583.824219 62.226562 583.582031 62.984375 583.289062 63.71875 C 583.105469 64.171875 582.839844 64.601562 582.558594 65.003906 C 582.203125 65.503906 581.675781 65.742188 581.066406 65.804688 C 579.785156 65.9375 578.742188 65.507812 577.933594 64.507812 C 577.1875 63.578125 576.664062 62.515625 576.226562 61.414062 C 575.453125 59.484375 575.035156 57.464844 574.734375 55.417969 C 574.707031 55.226562 574.675781 55.042969 574.621094 54.730469 C 574.484375 54.992188 574.398438 55.136719 574.324219 55.289062 C 573.285156 57.429688 572.03125 59.429688 570.4375 61.203125 C 569.128906 62.667969 567.578125 63.773438 565.640625 64.253906 C 564.464844 64.546875 563.265625 64.660156 562.074219 64.410156 C 561.460938 64.28125 560.871094 64.019531 560.207031 63.796875 C 560.179688 63.816406 560.082031 63.886719 559.988281 63.964844 C 559.246094 64.601562 558.378906 64.851562 557.40625 64.867188 C 555.871094 64.894531 554.554688 64.375 553.320312 63.5 C 551.855469 62.460938 550.195312 62.050781 548.410156 62.296875 C 547.925781 62.363281 547.464844 62.574219 546.988281 62.710938 C 543.988281 63.574219 541.875 61.335938 541.675781 58.875 C 541.65625 58.597656 541.621094 58.320312 541.582031 57.941406 C 541.363281 58.101562 541.207031 58.199219 541.0625 58.316406 C 540.242188 58.984375 539.4375 59.675781 538.605469 60.328125 C 536.046875 62.339844 533.167969 62.945312 530.023438 62.164062 C 527.25 61.480469 525.636719 59.671875 525.144531 56.859375 C 525.128906 56.761719 525.109375 56.660156 525.089844 56.5625 C 525.046875 56.550781 525 56.539062 524.957031 56.527344 Z M 530.394531 53.417969 C 530.820312 53.34375 531.136719 53.308594 531.441406 53.234375 C 531.816406 53.144531 532.195312 53.050781 532.554688 52.910156 C 533.941406 52.371094 534.894531 51.386719 535.453125 50.007812 C 535.664062 49.488281 535.710938 48.949219 535.625 48.402344 C 535.5 47.597656 535.082031 47.007812 534.328125 46.660156 C 534.011719 46.511719 533.730469 46.523438 533.433594 46.703125 C 532.964844 46.984375 532.632812 47.390625 532.359375 47.84375 C 531.554688 49.183594 530.988281 50.621094 530.640625 52.140625 C 530.550781 52.53125 530.488281 52.925781 530.394531 53.417969 " fill-opacity="1" fill-rule="nonzero"/></g><g clip-path="url(#e3586d2687)"><path fill="#b388ff" d="M 554.609375 41.65625 C 554.570312 42.570312 554.480469 43.285156 554.199219 43.964844 C 553.945312 44.578125 553.535156 45.050781 552.929688 45.320312 C 552.480469 45.523438 552.019531 45.703125 551.550781 45.859375 C 550.6875 46.144531 549.945312 45.894531 549.328125 45.269531 C 548.8125 44.746094 548.441406 44.132812 548.269531 43.40625 C 548.023438 42.378906 547.898438 41.359375 548.226562 40.324219 C 548.578125 39.207031 549.222656 38.359375 550.328125 37.882812 C 550.984375 37.597656 551.621094 37.660156 552.207031 37.996094 C 553.277344 38.617188 554.101562 39.472656 554.453125 40.695312 C 554.558594 41.0625 554.578125 41.457031 554.609375 41.65625 " fill-opacity="1" fill-rule="nonzero"/></g><path fill="#b388ff" d="M 563.472656 43.46875 C 563.378906 44.003906 563.332031 44.554688 563.183594 45.074219 C 562.785156 46.460938 561.863281 47.332031 560.46875 47.691406 C 560.195312 47.761719 559.914062 47.8125 559.636719 47.851562 C 558.148438 48.042969 556.828125 47.085938 556.75 45.585938 C 556.605469 42.804688 558.0625 40.890625 560.800781 40.390625 C 561.675781 40.230469 562.394531 40.59375 562.886719 41.34375 C 563.308594 41.984375 563.492188 42.691406 563.472656 43.46875 " fill-opacity="1" fill-rule="nonzero"/><path fill="#b388ff" d="M 540.054688 46.089844 C 540.117188 45.636719 540.117188 45.167969 540.246094 44.734375 C 540.652344 43.378906 541.589844 42.578125 542.96875 42.289062 C 543.523438 42.171875 544.007812 42.359375 544.453125 42.683594 C 545.628906 43.542969 546.089844 44.726562 546.003906 46.144531 C 545.96875 46.6875 545.886719 47.230469 545.804688 47.769531 C 545.644531 48.8125 545.015625 49.558594 544.050781 49.839844 C 542.652344 50.246094 541.359375 50.082031 540.589844 48.558594 C 540.195312 47.78125 540.058594 46.957031 540.054688 46.089844 " fill-opacity="1" fill-rule="nonzero"/><path fill="#b388ff" d="M 563.515625 55.09375 C 563.324219 55.0625 563.003906 55.042969 562.703125 54.960938 C 561.722656 54.691406 561.175781 53.886719 561.296875 52.886719 C 561.503906 51.226562 562.929688 49.433594 564.808594 49.097656 C 565.90625 48.902344 567 49.414062 567.539062 50.386719 C 568.382812 51.917969 567.804688 53.703125 566.195312 54.496094 C 565.394531 54.894531 564.53125 55.050781 563.515625 55.09375 " fill-opacity="1" fill-rule="nonzero"/><g clip-path="url(#c3ac0e12c3)"><path fill="#b388ff" d="M 1067.121094 244.753906 C 1068.277344 244.308594 1069.417969 244.289062 1070.558594 244.378906 C 1070.746094 244.394531 1070.921875 244.59375 1071.105469 244.703125 C 1070.945312 244.832031 1070.804688 245.03125 1070.625 245.078125 C 1069.636719 245.332031 1068.636719 245.550781 1067.640625 245.785156 C 1067.558594 245.804688 1067.484375 245.851562 1067.417969 245.878906 C 1067.410156 245.933594 1067.402344 245.960938 1067.402344 245.988281 C 1067.390625 247.058594 1068.160156 247.144531 1068.953125 247.300781 C 1069.648438 247.4375 1070.316406 247.707031 1070.984375 247.949219 C 1071.109375 247.992188 1071.179688 248.183594 1071.277344 248.308594 C 1071.121094 248.414062 1070.964844 248.605469 1070.804688 248.605469 C 1070.414062 248.609375 1070.019531 248.523438 1069.625 248.46875 C 1069.125 248.402344 1068.625 248.324219 1068.039062 248.238281 C 1068.503906 249.449219 1068.933594 250.566406 1069.371094 251.683594 C 1070.039062 253.40625 1071.09375 254.894531 1072.21875 256.339844 C 1072.785156 257.070312 1073.34375 257.808594 1073.902344 258.546875 C 1074.625 259.503906 1075.375 260.449219 1076.058594 261.4375 C 1076.65625 262.304688 1077.214844 263.207031 1077.714844 264.132812 C 1078.222656 265.070312 1078.691406 266.039062 1079.085938 267.03125 C 1079.578125 268.269531 1079.722656 269.59375 1079.914062 270.90625 C 1080.089844 272.105469 1080.074219 273.289062 1079.929688 274.480469 C 1079.859375 275.058594 1079.757812 275.640625 1079.597656 276.199219 C 1079.5 276.546875 1079.425781 276.792969 1079.753906 277.074219 C 1080.171875 277.429688 1080.488281 277.910156 1080.917969 278.242188 C 1081.6875 278.835938 1082.644531 278.921875 1083.574219 279.0625 C 1085.433594 279.339844 1087.210938 279.039062 1088.957031 278.394531 C 1090.25 277.914062 1091.460938 277.292969 1092.480469 276.359375 C 1093.734375 275.214844 1094.253906 273.726562 1094.367188 272.058594 C 1094.492188 270.175781 1093.714844 268.578125 1092.863281 266.992188 C 1092.507812 266.335938 1092.066406 265.707031 1091.84375 265.011719 C 1091.375 263.527344 1090.804688 262.058594 1090.722656 260.480469 C 1090.664062 259.351562 1090.582031 258.210938 1090.65625 257.089844 C 1090.738281 255.832031 1091.0625 254.605469 1091.644531 253.472656 C 1092.625 251.550781 1093.890625 249.851562 1095.644531 248.570312 C 1097.023438 247.5625 1098.496094 246.722656 1100.191406 246.375 C 1101.019531 246.203125 1101.859375 246 1102.695312 245.984375 C 1104.75 245.9375 1106.738281 246.292969 1108.617188 247.183594 C 1110.265625 247.96875 1111.210938 249.304688 1111.625 251.023438 C 1111.804688 251.785156 1111.742188 252.605469 1111.351562 253.308594 C 1110.863281 254.179688 1109.875 254.511719 1108.980469 253.941406 C 1108.109375 253.390625 1107.617188 252.539062 1107.203125 251.617188 C 1107.066406 251.3125 1106.746094 251 1106.433594 250.878906 C 1104.878906 250.265625 1103.269531 250.03125 1101.605469 250.390625 C 1101.011719 250.519531 1100.382812 250.519531 1099.804688 250.695312 C 1099.28125 250.851562 1098.820312 251.203125 1098.308594 251.410156 C 1097.203125 251.859375 1096.464844 252.726562 1095.710938 253.582031 C 1094.988281 254.398438 1094.53125 255.386719 1094.25 256.402344 C 1094.023438 257.21875 1094.027344 258.117188 1094.0625 258.976562 C 1094.128906 260.777344 1094.820312 262.421875 1095.515625 264.046875 C 1096.082031 265.378906 1096.777344 266.65625 1097.363281 267.980469 C 1097.863281 269.105469 1098.242188 270.265625 1098.46875 271.492188 C 1098.71875 272.855469 1098.664062 274.160156 1098.152344 275.417969 C 1097.871094 276.101562 1097.4375 276.738281 1096.992188 277.335938 C 1096.089844 278.542969 1094.96875 279.546875 1093.699219 280.347656 C 1092.546875 281.074219 1091.3125 281.648438 1089.980469 282.011719 C 1088.628906 282.378906 1087.257812 282.605469 1085.859375 282.601562 C 1083.882812 282.597656 1081.984375 282.21875 1080.242188 281.222656 C 1079.765625 280.949219 1079.285156 280.679688 1078.828125 280.367188 C 1078.71875 280.292969 1078.628906 280.0625 1078.65625 279.925781 C 1078.707031 279.664062 1078.921875 279.707031 1079.109375 279.800781 C 1080.21875 280.347656 1081.320312 280.917969 1082.445312 281.429688 C 1082.761719 281.574219 1083.148438 281.578125 1083.507812 281.613281 C 1084.890625 281.757812 1086.277344 281.792969 1087.644531 281.523438 C 1088.589844 281.339844 1089.539062 281.121094 1090.449219 280.8125 C 1091.121094 280.585938 1091.746094 280.207031 1092.375 279.863281 C 1092.796875 279.632812 1093.226562 279.390625 1093.597656 279.082031 C 1094.226562 278.558594 1094.839844 278.011719 1095.402344 277.421875 C 1096.125 276.664062 1096.726562 275.820312 1097.078125 274.808594 C 1097.378906 273.941406 1097.433594 273.054688 1097.3125 272.160156 C 1097.203125 271.34375 1097.042969 270.527344 1096.859375 269.726562 C 1096.789062 269.425781 1096.558594 269.167969 1096.433594 268.875 C 1096.066406 268.042969 1095.742188 267.191406 1095.359375 266.363281 C 1094.988281 265.558594 1094.507812 264.796875 1094.179688 263.972656 C 1093.789062 263 1093.5625 261.960938 1093.171875 260.988281 C 1092.832031 260.148438 1092.808594 259.269531 1092.785156 258.410156 C 1092.738281 256.734375 1093.25 255.1875 1094.175781 253.785156 C 1095.148438 252.308594 1096.40625 251.152344 1098.027344 250.429688 C 1099.164062 249.921875 1100.34375 249.601562 1101.605469 249.484375 C 1103.035156 249.347656 1104.4375 249.382812 1105.785156 249.804688 C 1106.921875 250.15625 1107.890625 250.816406 1108.40625 251.984375 C 1108.585938 252.394531 1108.855469 252.773438 1109.132812 253.132812 C 1109.363281 253.433594 1109.734375 253.566406 1110.070312 253.394531 C 1110.316406 253.269531 1110.578125 253.003906 1110.65625 252.75 C 1110.964844 251.710938 1110.667969 250.738281 1110.152344 249.835938 C 1109.519531 248.734375 1108.511719 248.121094 1107.335938 247.714844 C 1105.703125 247.152344 1104.027344 246.945312 1102.316406 247.0625 C 1100.835938 247.164062 1099.441406 247.613281 1098.15625 248.339844 C 1097.328125 248.804688 1096.449219 249.253906 1095.777344 249.898438 C 1094.160156 251.457031 1092.839844 253.246094 1092.195312 255.449219 C 1091.765625 256.933594 1091.855469 258.449219 1091.917969 259.960938 C 1091.984375 261.582031 1092.445312 263.109375 1093.082031 264.585938 C 1093.34375 265.195312 1093.652344 265.789062 1093.933594 266.394531 C 1094.523438 267.65625 1095.257812 268.875 1095.46875 270.273438 C 1095.683594 271.683594 1095.582031 273.070312 1095.050781 274.433594 C 1094.648438 275.460938 1094.089844 276.367188 1093.269531 277.054688 C 1092.550781 277.65625 1091.726562 278.164062 1090.886719 278.585938 C 1089.1875 279.445312 1087.378906 279.96875 1085.453125 279.976562 C 1083.640625 279.984375 1081.886719 279.707031 1080.332031 278.699219 C 1079.925781 278.4375 1079.625 278.019531 1079.230469 277.632812 C 1079.097656 277.992188 1078.972656 278.367188 1078.824219 278.726562 C 1078.371094 279.832031 1077.835938 280.890625 1077.046875 281.796875 C 1076.839844 282.035156 1076.820312 282.261719 1076.925781 282.523438 C 1077.234375 283.28125 1076.699219 283.789062 1076.066406 284.011719 C 1074.816406 284.453125 1073.503906 284.617188 1072.171875 284.65625 C 1071.085938 284.6875 1070.003906 284.773438 1068.917969 284.824219 C 1068.078125 284.859375 1067.238281 284.917969 1066.398438 284.902344 C 1064.480469 284.871094 1062.554688 284.851562 1060.640625 284.714844 C 1059.675781 284.648438 1058.730469 284.34375 1057.765625 284.144531 C 1057.765625 284.164062 1057.785156 284.257812 1057.792969 284.347656 C 1057.871094 285.207031 1057.402344 285.703125 1056.46875 285.714844 C 1054.324219 285.742188 1052.367188 285.234375 1050.765625 283.652344 C 1050.28125 284.503906 1049.390625 284.589844 1048.601562 284.777344 C 1047.765625 284.976562 1046.894531 285.058594 1046.03125 285.078125 C 1044.808594 285.113281 1043.746094 284.269531 1043.457031 283.152344 C 1043.277344 282.457031 1043.613281 281.886719 1044.304688 281.71875 C 1044.589844 281.652344 1044.878906 281.550781 1045.167969 281.558594 C 1045.730469 281.566406 1045.992188 281.253906 1046.15625 280.785156 C 1046.464844 279.90625 1046.5 278.992188 1046.53125 278.074219 C 1046.601562 276.242188 1046.347656 274.4375 1046.09375 272.628906 C 1045.878906 271.078125 1045.683594 269.523438 1045.449219 267.976562 C 1045.277344 266.851562 1045.070312 265.730469 1044.867188 264.609375 C 1044.683594 263.566406 1044.535156 262.511719 1044.277344 261.484375 C 1044.027344 260.484375 1043.746094 259.472656 1043.320312 258.53125 C 1042.859375 257.511719 1042.164062 256.597656 1041.671875 255.589844 C 1041.265625 254.757812 1041.015625 253.847656 1040.675781 252.980469 C 1040.523438 252.59375 1040.320312 252.226562 1040.109375 251.789062 C 1039.136719 252.097656 1038.144531 252.417969 1037.148438 252.726562 C 1036.84375 252.820312 1036.53125 252.90625 1036.214844 252.964844 C 1035.914062 253.019531 1035.738281 252.824219 1035.914062 252.589844 C 1036.136719 252.289062 1036.433594 251.996094 1036.765625 251.828125 C 1037.738281 251.332031 1038.753906 250.929688 1039.890625 250.800781 C 1039.8125 250.457031 1039.742188 250.132812 1039.679688 249.855469 C 1038.136719 249.847656 1036.617188 249.941406 1035.109375 249.785156 C 1035.085938 249.714844 1035.058594 249.644531 1035.03125 249.578125 C 1035.222656 249.410156 1035.398438 249.132812 1035.609375 249.097656 C 1036.664062 248.933594 1037.726562 248.832031 1038.789062 248.71875 C 1038.976562 248.695312 1039.167969 248.714844 1039.4375 248.714844 C 1039.40625 248.503906 1039.382812 248.332031 1039.355469 248.15625 C 1039.261719 247.515625 1039.132812 246.882812 1039.085938 246.242188 C 1039 245.082031 1038.890625 243.917969 1038.917969 242.761719 C 1038.953125 241.496094 1039.128906 240.234375 1039.25 238.96875 C 1039.40625 237.371094 1039.816406 235.832031 1040.503906 234.382812 C 1040.808594 233.738281 1041.199219 233.128906 1041.628906 232.558594 C 1041.960938 232.113281 1042.421875 232.074219 1042.824219 232.449219 C 1043.402344 232.980469 1043.929688 233.570312 1044.453125 234.160156 C 1044.722656 234.464844 1044.941406 234.8125 1045.175781 235.148438 C 1045.886719 236.171875 1046.59375 237.199219 1047.304688 238.234375 C 1048.140625 238.042969 1049.042969 237.789062 1049.957031 237.640625 C 1050.828125 237.5 1051.714844 237.425781 1052.597656 237.40625 C 1053.878906 237.375 1055.160156 237.417969 1056.4375 237.433594 C 1056.664062 237.433594 1056.890625 237.484375 1057.113281 237.472656 C 1057.988281 237.417969 1058.324219 236.675781 1058.777344 236.109375 C 1060.027344 234.546875 1061.375 233.09375 1063.113281 232.058594 C 1063.273438 231.960938 1063.441406 231.867188 1063.613281 231.792969 C 1064.425781 231.425781 1064.894531 231.550781 1065.242188 232.375 C 1065.5 232.980469 1065.585938 233.667969 1065.683594 234.328125 C 1065.792969 235.0625 1065.824219 235.804688 1065.902344 236.542969 C 1066.003906 237.515625 1066.089844 238.492188 1066.226562 239.460938 C 1066.394531 240.628906 1066.605469 241.785156 1066.800781 242.945312 C 1066.898438 243.535156 1067.007812 244.121094 1067.121094 244.753906 Z M 1061.621094 279.5 C 1061.582031 279.351562 1061.53125 279.1875 1061.492188 279.019531 C 1061.328125 278.292969 1061.070312 277.574219 1061.019531 276.839844 C 1060.898438 275.015625 1061.34375 273.300781 1062.203125 271.679688 C 1063.023438 270.125 1064 268.714844 1065.421875 267.644531 C 1066.070312 267.160156 1066.6875 266.628906 1067.347656 266.164062 C 1068.328125 265.476562 1069.421875 265.003906 1070.574219 264.714844 C 1071.460938 264.488281 1072.378906 264.46875 1073.261719 264.789062 C 1073.476562 264.863281 1073.695312 264.996094 1073.84375 265.164062 C 1073.9375 265.265625 1073.898438 265.484375 1073.917969 265.652344 C 1073.761719 265.648438 1073.605469 265.65625 1073.453125 265.628906 C 1073.367188 265.613281 1073.300781 265.515625 1073.21875 265.480469 C 1072.253906 265.074219 1071.273438 265.195312 1070.371094 265.59375 C 1069.378906 266.035156 1068.417969 266.574219 1067.503906 267.164062 C 1066.855469 267.578125 1066.25 268.09375 1065.71875 268.65625 C 1065.117188 269.292969 1064.578125 270 1064.09375 270.734375 C 1063.636719 271.425781 1063.207031 272.15625 1062.910156 272.925781 C 1062.621094 273.683594 1062.429688 274.5 1062.347656 275.308594 C 1062.269531 276.097656 1062.328125 276.914062 1062.4375 277.699219 C 1062.535156 278.40625 1062.792969 279.089844 1062.964844 279.789062 C 1063.097656 280.316406 1062.847656 280.660156 1062.316406 280.660156 C 1060.988281 280.660156 1059.742188 281.011719 1058.515625 281.476562 C 1057.773438 281.757812 1057.570312 282.1875 1057.964844 282.734375 C 1058.113281 282.941406 1058.433594 283.042969 1058.695312 283.144531 C 1060.25 283.746094 1061.910156 283.761719 1063.527344 283.804688 C 1066.574219 283.882812 1069.625 283.804688 1072.675781 283.753906 C 1073.570312 283.738281 1074.464844 283.605469 1075.351562 283.488281 C 1075.863281 283.417969 1076.207031 282.808594 1076.097656 282.304688 C 1076.070312 282.164062 1076.097656 281.988281 1076.160156 281.859375 C 1076.445312 281.25 1076.789062 280.667969 1077.042969 280.046875 C 1077.375 279.226562 1077.679688 278.390625 1077.933594 277.539062 C 1078.210938 276.601562 1078.445312 275.652344 1078.636719 274.695312 C 1078.78125 273.976562 1078.878906 273.246094 1078.902344 272.515625 C 1078.933594 271.621094 1078.890625 270.722656 1078.839844 269.824219 C 1078.789062 268.964844 1078.488281 268.179688 1078.152344 267.382812 C 1077.527344 265.914062 1076.808594 264.488281 1075.898438 263.199219 C 1075.171875 262.164062 1074.429688 261.128906 1073.628906 260.136719 C 1072.320312 258.503906 1071.089844 256.8125 1069.855469 255.121094 C 1069.433594 254.542969 1069.035156 253.929688 1068.753906 253.277344 C 1068.09375 251.738281 1067.492188 250.167969 1066.898438 248.601562 C 1066.785156 248.296875 1066.636719 248.226562 1066.351562 248.246094 C 1065.734375 248.296875 1065.117188 248.34375 1064.503906 248.355469 C 1064.34375 248.355469 1064.179688 248.214844 1064.019531 248.136719 C 1064.128906 248 1064.214844 247.796875 1064.359375 247.742188 C 1065.023438 247.480469 1065.703125 247.261719 1066.410156 247.019531 C 1066.34375 246.777344 1066.265625 246.503906 1066.179688 246.191406 C 1065.433594 246.449219 1064.71875 246.683594 1064.011719 246.949219 C 1063.703125 247.0625 1063.453125 247.09375 1063.292969 246.734375 C 1063.90625 245.949219 1064.785156 245.585938 1065.625 245.183594 C 1065.9375 245.03125 1065.992188 244.890625 1065.917969 244.582031 C 1065.792969 244.0625 1065.671875 243.535156 1065.605469 243.003906 C 1065.464844 241.882812 1065.34375 240.757812 1065.242188 239.632812 C 1065.117188 238.257812 1065.019531 236.878906 1064.902344 235.503906 C 1064.820312 234.570312 1064.753906 233.636719 1064.617188 232.710938 C 1064.539062 232.183594 1064.253906 232.09375 1063.800781 232.382812 C 1063.503906 232.574219 1063.195312 232.761719 1062.945312 233.003906 C 1061.972656 233.945312 1060.988281 234.882812 1060.066406 235.878906 C 1059.515625 236.472656 1059.09375 237.183594 1058.582031 237.816406 C 1058.265625 238.203125 1057.84375 238.414062 1057.316406 238.425781 C 1055.238281 238.472656 1053.160156 238.519531 1051.082031 238.613281 C 1050.414062 238.640625 1049.738281 238.757812 1049.085938 238.914062 C 1048.476562 239.0625 1047.898438 239.324219 1047.300781 239.519531 C 1046.847656 239.667969 1046.449219 239.472656 1046.246094 239.050781 C 1045.699219 237.898438 1045.007812 236.832031 1044.226562 235.824219 C 1043.710938 235.164062 1043.152344 234.535156 1042.644531 233.871094 C 1042.402344 233.550781 1042.25 233.566406 1042.09375 233.910156 C 1041.765625 234.640625 1041.425781 235.363281 1041.128906 236.105469 C 1040.945312 236.558594 1040.769531 237.03125 1040.695312 237.511719 C 1040.472656 238.949219 1040.21875 240.382812 1040.214844 241.84375 C 1040.214844 242.464844 1040.160156 243.082031 1040.144531 243.703125 C 1040.136719 244.128906 1040.125 244.5625 1040.160156 244.988281 C 1040.257812 246.082031 1040.402344 247.175781 1040.484375 248.273438 C 1040.511719 248.625 1040.625 248.691406 1040.957031 248.726562 C 1041.578125 248.792969 1042.191406 248.933594 1042.800781 249.074219 C 1042.910156 249.097656 1042.984375 249.269531 1043.070312 249.375 C 1042.96875 249.457031 1042.878906 249.574219 1042.765625 249.617188 C 1042.617188 249.671875 1042.449219 249.671875 1042.285156 249.683594 C 1041.792969 249.722656 1041.296875 249.757812 1040.71875 249.796875 C 1040.816406 250.199219 1040.898438 250.542969 1040.980469 250.871094 C 1041.601562 250.996094 1041.601562 251.003906 1041.265625 251.496094 C 1041.222656 251.558594 1041.195312 251.664062 1041.214844 251.734375 C 1041.554688 252.804688 1041.816406 253.910156 1042.265625 254.9375 C 1042.800781 256.160156 1043.523438 257.296875 1044.105469 258.496094 C 1044.4375 259.175781 1044.722656 259.894531 1044.910156 260.625 C 1045.324219 262.214844 1045.683594 263.820312 1046.027344 265.429688 C 1046.339844 266.886719 1046.617188 268.355469 1046.882812 269.824219 C 1047.046875 270.746094 1047.160156 271.679688 1047.289062 272.609375 C 1047.425781 273.566406 1047.597656 274.523438 1047.671875 275.488281 C 1047.746094 276.390625 1047.65625 277.308594 1047.734375 278.214844 C 1047.820312 279.1875 1047.6875 280.113281 1047.378906 281.03125 C 1047.050781 282.007812 1046.414062 282.613281 1045.355469 282.714844 C 1045.140625 282.738281 1044.925781 282.789062 1044.710938 282.828125 C 1044.824219 283.519531 1045.359375 283.917969 1046.175781 283.941406 C 1047.25 283.976562 1048.269531 283.695312 1049.28125 283.398438 C 1049.453125 283.347656 1049.617188 283.132812 1049.699219 282.957031 C 1049.789062 282.765625 1049.785156 282.53125 1049.816406 282.3125 C 1049.96875 281.234375 1050.128906 280.160156 1050.273438 279.078125 C 1050.480469 277.480469 1050.738281 275.882812 1050.859375 274.277344 C 1050.976562 272.753906 1050.933594 271.214844 1050.980469 269.683594 C 1050.996094 269.140625 1051.054688 268.601562 1051.140625 268.066406 C 1051.15625 267.960938 1051.371094 267.882812 1051.492188 267.792969 C 1051.566406 267.917969 1051.695312 268.039062 1051.699219 268.164062 C 1051.722656 268.628906 1051.6875 269.09375 1051.703125 269.558594 C 1051.742188 270.851562 1051.863281 272.144531 1051.835938 273.4375 C 1051.777344 276.453125 1051.5 279.453125 1051.035156 282.4375 C 1051.003906 282.625 1051.070312 282.894531 1051.195312 283.027344 C 1051.445312 283.285156 1051.769531 283.472656 1052.066406 283.6875 C 1052.902344 284.300781 1053.90625 284.441406 1054.875 284.628906 C 1055.40625 284.730469 1055.972656 284.644531 1056.578125 284.644531 C 1056.363281 283.582031 1055.78125 282.796875 1055.378906 281.933594 C 1055.117188 281.371094 1054.921875 280.800781 1055.09375 280.199219 C 1055.414062 279.0625 1055.714844 277.910156 1056.164062 276.824219 C 1056.789062 275.308594 1057.523438 273.84375 1058.238281 272.371094 C 1058.722656 271.367188 1059.25 270.386719 1059.765625 269.398438 C 1060.003906 268.945312 1060.246094 268.492188 1060.511719 268.054688 C 1060.578125 267.949219 1060.75 267.914062 1060.875 267.84375 C 1060.933594 268.007812 1061.078125 268.207031 1061.035156 268.335938 C 1060.699219 269.269531 1060.351562 270.199219 1059.960938 271.109375 C 1059.554688 272.054688 1059.074219 272.964844 1058.664062 273.90625 C 1058.335938 274.652344 1058.050781 275.417969 1057.773438 276.183594 C 1057.273438 277.558594 1056.777344 278.929688 1056.328125 280.316406 C 1056.203125 280.695312 1056.238281 281.125 1056.527344 281.4375 C 1057.976562 280.113281 1059.789062 279.855469 1061.621094 279.5 Z M 1061.621094 279.5 " fill-opacity="1" fill-rule="nonzero"/></g><path fill="#b388ff" d="M 1057.171875 245.980469 C 1056.382812 246.003906 1055.34375 245.144531 1055.074219 244.1875 C 1054.957031 243.773438 1054.894531 243.324219 1054.902344 242.894531 C 1054.90625 242.710938 1055.132812 242.386719 1055.277344 242.375 C 1055.515625 242.359375 1055.613281 242.613281 1055.695312 242.886719 C 1055.902344 243.617188 1056.304688 244.265625 1056.910156 244.738281 C 1057.25 245 1057.613281 244.792969 1057.855469 244.535156 C 1058.25 244.121094 1058.566406 243.636719 1058.949219 243.214844 C 1059.078125 243.070312 1059.316406 243.023438 1059.5 242.933594 C 1059.539062 243.105469 1059.605469 243.277344 1059.605469 243.449219 C 1059.605469 244.066406 1059.355469 244.585938 1058.960938 245.042969 C 1058.492188 245.59375 1057.945312 246.007812 1057.171875 245.980469 Z M 1057.171875 245.980469 " fill-opacity="1" fill-rule="nonzero"/><path fill="#b388ff" d="M 1047.773438 243.667969 C 1047.75 244.617188 1047.355469 245.316406 1046.457031 245.707031 C 1045.609375 246.074219 1044.761719 246.113281 1043.902344 245.761719 C 1043.386719 245.550781 1042.863281 244.742188 1042.910156 244.191406 C 1042.917969 244.070312 1043.082031 243.886719 1043.195312 243.871094 C 1043.324219 243.851562 1043.535156 243.953125 1043.609375 244.066406 C 1043.992188 244.675781 1044.496094 244.957031 1045.234375 244.859375 C 1046.25 244.722656 1046.773438 244.121094 1046.984375 243.164062 C 1047.023438 242.984375 1047.023438 242.746094 1047.339844 242.761719 C 1047.632812 242.777344 1047.695312 242.964844 1047.75 243.183594 C 1047.765625 243.253906 1047.769531 243.332031 1047.773438 243.402344 C 1047.777344 243.492188 1047.773438 243.582031 1047.773438 243.667969 Z M 1047.773438 243.667969 " fill-opacity="1" fill-rule="nonzero"/><path fill="#b388ff" d="M 1051.160156 247.328125 C 1051.160156 248.003906 1051.1875 248.648438 1051.144531 249.285156 C 1051.128906 249.488281 1050.917969 249.675781 1050.796875 249.871094 C 1050.617188 249.691406 1050.34375 249.539062 1050.277344 249.320312 C 1050.101562 248.78125 1050.015625 248.207031 1049.90625 247.644531 C 1049.855469 247.386719 1049.742188 247.246094 1049.460938 247.179688 C 1049.273438 247.136719 1048.996094 246.96875 1048.980469 246.828125 C 1048.957031 246.621094 1049.070312 246.34375 1049.21875 246.171875 C 1049.570312 245.765625 1051.269531 245.601562 1051.863281 246.039062 C 1052.152344 246.253906 1052.105469 246.816406 1051.769531 247.019531 C 1051.582031 247.132812 1051.378906 247.21875 1051.160156 247.328125 Z M 1051.160156 247.328125 " fill-opacity="1" fill-rule="nonzero"/><g clip-path="url(#1e4a26b882)"><path fill="#b388ff" d="M 1263.316406 121.128906 C 1263.265625 121.128906 1263.214844 121.132812 1263.160156 121.136719 C 1261.0625 121.5 1259.910156 123.71875 1259.742188 125.671875 C 1259.5 127.449219 1260.28125 129.726562 1262.230469 130.125 C 1262.511719 130.179688 1262.804688 130.15625 1263.082031 130.078125 C 1265.429688 129.292969 1266.480469 126.515625 1266.140625 124.210938 C 1266.039062 122.726562 1264.921875 121.109375 1263.316406 121.128906 Z M 1254.425781 121.226562 C 1253.121094 121.257812 1252.105469 122.578125 1251.898438 123.824219 C 1251.464844 126.285156 1252.585938 129.347656 1255.152344 130.125 C 1255.390625 130.179688 1255.640625 130.183594 1255.882812 130.144531 C 1257.617188 129.855469 1258.351562 127.914062 1258.28125 126.34375 C 1258.226562 124.273438 1257.152344 121.878906 1255 121.292969 C 1254.804688 121.242188 1254.613281 121.222656 1254.425781 121.226562 Z M 1269 128.222656 C 1266.746094 128.355469 1265.199219 130.605469 1264.976562 132.710938 C 1264.679688 134.226562 1265.488281 136.253906 1267.21875 136.375 C 1269.628906 136.34375 1271.273438 133.765625 1271.34375 131.550781 C 1271.496094 130.082031 1270.632812 128.300781 1269 128.222656 Z M 1249.253906 128.722656 C 1248.296875 128.710938 1247.351562 129.289062 1247.039062 130.261719 C 1246.199219 132.871094 1247.882812 136.179688 1250.644531 136.726562 C 1251.800781 136.925781 1252.8125 136.039062 1253.097656 134.972656 C 1253.703125 132.691406 1252.460938 130.046875 1250.351562 129.011719 C 1250.007812 128.816406 1249.628906 128.722656 1249.253906 128.722656 Z M 1259.367188 133.402344 C 1257.488281 133.40625 1255.574219 134.359375 1254.355469 135.78125 C 1253.042969 137.4375 1251.964844 139.367188 1251.542969 141.457031 C 1251.027344 142.960938 1252.191406 144.691406 1253.800781 144.703125 C 1255.734375 144.757812 1257.398438 143.429688 1259.324219 143.328125 C 1260.957031 143.082031 1262.417969 143.929688 1263.886719 144.484375 C 1265.136719 145.019531 1266.863281 144.816406 1267.5 143.46875 C 1268.003906 142.097656 1267.265625 140.636719 1266.652344 139.417969 C 1265.402344 137.445312 1264.066406 135.367188 1262.019531 134.132812 C 1261.199219 133.625 1260.289062 133.398438 1259.367188 133.402344 Z M 1259.367188 133.402344 " fill-opacity="1" fill-rule="nonzero"/></g><path fill="#b388ff" d="M 31.953125 70.6875 C 32.25 70.617188 32.546875 70.546875 32.84375 70.476562 C 31.996094 69.195312 31.476562 67.902344 30.902344 66.578125 C 30.347656 67.117188 31.550781 70.78125 31.953125 70.6875 " fill-opacity="1" fill-rule="nonzero"/><path fill="#b388ff" d="M 34.710938 64.179688 C 34.710938 64.292969 34.734375 64.429688 34.882812 64.496094 C 34.960938 64.53125 35.050781 64.535156 35.136719 64.535156 C 35.3125 64.539062 35.484375 64.542969 35.660156 64.542969 C 35.703125 64.546875 35.75 64.542969 35.773438 64.523438 C 35.800781 64.503906 35.792969 64.46875 35.785156 64.4375 C 35.480469 63.257812 35.398438 62.113281 35.359375 60.960938 C 34.804688 61.972656 34.714844 63.023438 34.710938 64.179688 " fill-opacity="1" fill-rule="nonzero"/><path fill="#b388ff" d="M 42.40625 64.769531 C 42.738281 64.863281 43.082031 64.933594 43.425781 64.972656 C 43.984375 65.03125 43.421875 61.171875 42.953125 60.867188 C 42.953125 62.132812 42.859375 63.542969 42.40625 64.769531 " fill-opacity="1" fill-rule="nonzero"/><path fill="#b388ff" d="M 45.929688 69.597656 C 46.199219 69.664062 46.457031 69.78125 46.671875 69.945312 C 46.777344 70.023438 47.332031 68.425781 47.351562 68.277344 C 47.445312 67.671875 47.40625 66.996094 47.164062 66.417969 C 47.027344 67.511719 46.460938 68.628906 45.929688 69.597656 " fill-opacity="1" fill-rule="nonzero"/><g clip-path="url(#7170504922)"><path fill="#b388ff" d="M 33.320312 74.054688 C 33.328125 73.855469 33.335938 73.644531 33.234375 73.472656 C 33.109375 73.261719 32.859375 73.152344 32.628906 73.039062 C 31.457031 72.453125 30.503906 71.316406 30.609375 70.089844 C 30.703125 68.992188 31.804688 68.152344 32.988281 68.246094 C 33.152344 68.261719 33.261719 68.097656 33.1875 67.964844 C 32.691406 67.085938 32.636719 65.988281 33.109375 65.097656 C 33.652344 64.082031 34.679688 63.511719 35.902344 63.613281 C 36.980469 63.703125 37.898438 64.1875 38.425781 65.203125 C 38.5 65.347656 38.722656 65.347656 38.800781 65.203125 C 39.546875 63.78125 41.039062 63.167969 41.96875 63.167969 C 43.382812 63.167969 44.199219 63.796875 44.765625 64.605469 C 45.511719 65.675781 45.441406 66.78125 44.875 67.886719 C 44.804688 68.03125 44.941406 68.1875 45.105469 68.15625 C 46.128906 67.964844 47.304688 68.382812 47.761719 69.222656 C 48.285156 70.195312 47.925781 71.421875 47.148438 72.238281 C 46.496094 72.925781 46.054688 73.226562 45.261719 73.511719 C 44.980469 73.613281 44.804688 73.875 44.824219 74.152344 C 44.902344 75.28125 44.988281 76.078125 45.160156 77.277344 C 45.316406 78.378906 45.441406 79.484375 45.535156 80.59375 C 46.136719 87.832031 46.996094 94.207031 48.082031 101.398438 C 48.105469 101.546875 48.097656 101.710938 48.097656 101.863281 C 48.097656 101.984375 48.078125 102.113281 47.996094 102.210938 C 47.910156 102.3125 47.773438 102.363281 47.636719 102.390625 C 47.0625 102.511719 46.5 102.640625 45.90625 102.640625 C 45.144531 102.699219 44.378906 102.75 43.617188 102.785156 C 42.101562 102.863281 40.582031 102.898438 39.0625 102.953125 C 38.660156 102.964844 38.253906 102.980469 37.851562 102.996094 C 36.160156 103.066406 34.46875 103.109375 32.777344 103.121094 C 31.753906 103.132812 31.371094 103.199219 31.398438 102.3125 C 31.441406 101.027344 31.683594 100.347656 31.789062 99.007812 C 31.914062 97.402344 32.035156 95.796875 32.152344 94.1875 C 32.382812 91.003906 32.589844 87.820312 32.777344 84.632812 C 32.984375 81.109375 33.164062 77.582031 33.320312 74.054688 " fill-opacity="1" fill-rule="nonzero"/></g><g clip-path="url(#6b96ab8e31)"><path fill="#b388ff" d="M 29.753906 37.425781 L 29.738281 38.300781 C 29.734375 38.59375 29.730469 38.886719 29.730469 39.175781 C 29.730469 39.757812 29.742188 40.335938 29.785156 40.910156 C 29.828125 41.484375 29.902344 42.050781 30.023438 42.605469 C 30.144531 43.164062 30.300781 43.71875 30.441406 44.292969 C 30.582031 44.867188 30.703125 45.464844 30.730469 46.082031 L 30.738281 46.3125 L 30.738281 46.539062 C 30.738281 46.695312 30.726562 46.84375 30.71875 46.996094 C 30.707031 47.148438 30.695312 47.296875 30.675781 47.449219 C 30.660156 47.59375 30.644531 47.746094 30.621094 47.890625 C 30.539062 48.480469 30.425781 49.054688 30.335938 49.621094 C 30.289062 49.90625 30.25 50.183594 30.21875 50.464844 C 30.191406 50.742188 30.167969 51.019531 30.167969 51.296875 C 30.160156 51.84375 30.226562 52.398438 30.320312 52.960938 C 30.410156 53.527344 30.523438 54.101562 30.601562 54.695312 C 30.640625 54.992188 30.667969 55.296875 30.683594 55.59375 C 30.695312 55.746094 30.695312 55.894531 30.699219 56.042969 C 30.699219 56.195312 30.703125 56.34375 30.699219 56.492188 C 30.695312 56.789062 30.683594 57.085938 30.664062 57.382812 C 30.644531 57.675781 30.621094 57.96875 30.59375 58.261719 C 30.484375 59.429688 30.324219 60.578125 30.265625 61.730469 C 30.25 62.019531 30.242188 62.308594 30.246094 62.59375 C 30.242188 62.738281 30.25 62.882812 30.253906 63.027344 C 30.265625 63.167969 30.265625 63.316406 30.28125 63.457031 C 30.324219 64.03125 30.425781 64.605469 30.582031 65.167969 C 30.523438 65.035156 30.460938 64.902344 30.410156 64.761719 C 30.386719 64.695312 30.359375 64.625 30.335938 64.554688 L 30.265625 64.347656 C 30.179688 64.066406 30.105469 63.78125 30.050781 63.488281 C 30.019531 63.34375 30 63.199219 29.972656 63.054688 C 29.957031 62.90625 29.933594 62.761719 29.917969 62.613281 C 29.886719 62.320312 29.871094 62.023438 29.855469 61.730469 C 29.808594 60.546875 29.894531 59.375 29.941406 58.21875 C 29.964844 57.640625 29.976562 57.066406 29.964844 56.496094 C 29.949219 55.925781 29.90625 55.367188 29.820312 54.808594 C 29.730469 54.25 29.613281 53.679688 29.507812 53.097656 C 29.410156 52.515625 29.328125 51.90625 29.335938 51.289062 C 29.347656 50.050781 29.65625 48.894531 29.839844 47.773438 C 29.9375 47.210938 30 46.652344 29.996094 46.101562 C 29.992188 45.554688 29.910156 44.996094 29.804688 44.433594 L 29.636719 43.578125 C 29.582031 43.289062 29.527344 42.996094 29.484375 42.703125 C 29.441406 42.40625 29.414062 42.109375 29.394531 41.8125 C 29.378906 41.515625 29.375 41.21875 29.378906 40.921875 C 29.386719 40.332031 29.429688 39.746094 29.5 39.164062 C 29.535156 38.871094 29.574219 38.582031 29.613281 38.292969 C 29.660156 38.003906 29.703125 37.714844 29.753906 37.425781 " fill-opacity="1" fill-rule="nonzero"/></g><path fill="#b388ff" d="M 34.609375 34.492188 C 34.566406 36.59375 34.449219 38.691406 34.601562 40.757812 C 34.640625 41.273438 34.695312 41.785156 34.773438 42.292969 C 34.804688 42.546875 34.859375 42.796875 34.898438 43.050781 C 34.949219 43.300781 35.003906 43.554688 35.0625 43.804688 C 35.179688 44.3125 35.304688 44.820312 35.414062 45.34375 C 35.527344 45.863281 35.621094 46.398438 35.667969 46.941406 C 35.714844 47.484375 35.726562 48.023438 35.710938 48.5625 C 35.695312 49.097656 35.660156 49.628906 35.605469 50.15625 C 35.503906 51.210938 35.355469 52.246094 35.261719 53.277344 C 35.058594 55.335938 35.171875 57.433594 35.207031 59.539062 C 35.15625 59.28125 35.113281 59.023438 35.066406 58.761719 L 34.941406 57.984375 C 34.863281 57.460938 34.792969 56.941406 34.738281 56.414062 C 34.625 55.367188 34.570312 54.300781 34.605469 53.238281 C 34.625 52.707031 34.660156 52.179688 34.699219 51.65625 C 34.738281 51.128906 34.785156 50.609375 34.820312 50.089844 C 34.855469 49.570312 34.882812 49.054688 34.890625 48.542969 C 34.898438 48.03125 34.882812 47.519531 34.835938 47.019531 C 34.796875 46.515625 34.710938 46.015625 34.609375 45.507812 C 34.511719 45 34.394531 44.492188 34.289062 43.972656 C 34.238281 43.710938 34.191406 43.449219 34.148438 43.183594 C 34.109375 42.917969 34.070312 42.652344 34.042969 42.382812 C 34.011719 42.117188 33.996094 41.851562 33.976562 41.585938 C 33.96875 41.453125 33.964844 41.316406 33.960938 41.183594 L 33.953125 40.984375 L 33.949219 40.785156 C 33.933594 39.71875 34.007812 38.660156 34.125 37.613281 C 34.1875 37.089844 34.257812 36.566406 34.339844 36.046875 L 34.46875 35.265625 C 34.515625 35.007812 34.558594 34.75 34.609375 34.492188 " fill-opacity="1" fill-rule="nonzero"/><g clip-path="url(#835c19d04b)"><path fill="#b388ff" d="M 41.257812 32.171875 C 41.621094 34.414062 41.90625 36.664062 42.160156 38.914062 C 42.289062 40.039062 42.40625 41.164062 42.519531 42.292969 L 42.601562 43.136719 L 42.679688 43.984375 C 42.726562 44.554688 42.761719 45.132812 42.753906 45.71875 C 42.75 46.011719 42.734375 46.3125 42.703125 46.601562 C 42.675781 46.890625 42.640625 47.175781 42.605469 47.457031 C 42.566406 47.734375 42.53125 48.011719 42.503906 48.285156 C 42.496094 48.351562 42.492188 48.421875 42.488281 48.488281 L 42.476562 48.695312 L 42.464844 48.898438 C 42.460938 48.96875 42.453125 49.035156 42.453125 49.105469 C 42.425781 50.203125 42.523438 51.316406 42.648438 52.433594 C 42.777344 53.554688 42.925781 54.683594 42.992188 55.824219 C 43.015625 56.394531 43.035156 56.96875 42.996094 57.539062 L 42.984375 57.753906 C 42.984375 57.824219 42.980469 57.894531 42.96875 57.96875 L 42.921875 58.394531 C 42.914062 58.464844 42.910156 58.535156 42.894531 58.605469 L 42.855469 58.816406 C 42.832031 58.957031 42.804688 59.09375 42.78125 59.234375 C 42.800781 58.664062 42.8125 58.101562 42.765625 57.542969 L 42.753906 57.332031 C 42.746094 57.261719 42.746094 57.191406 42.734375 57.121094 L 42.691406 56.703125 C 42.683594 56.632812 42.679688 56.5625 42.667969 56.492188 L 42.640625 56.285156 L 42.585938 55.867188 C 42.417969 54.753906 42.191406 53.648438 42 52.527344 C 41.957031 52.246094 41.90625 51.964844 41.867188 51.679688 C 41.828125 51.394531 41.789062 51.113281 41.761719 50.824219 L 41.71875 50.394531 L 41.691406 49.960938 L 41.675781 49.746094 C 41.671875 49.671875 41.671875 49.601562 41.671875 49.527344 L 41.664062 49.089844 C 41.664062 48.945312 41.671875 48.796875 41.675781 48.652344 L 41.6875 48.433594 C 41.6875 48.359375 41.691406 48.289062 41.699219 48.214844 C 41.722656 47.921875 41.753906 47.636719 41.785156 47.355469 C 41.820312 47.074219 41.855469 46.796875 41.878906 46.523438 C 41.90625 46.25 41.917969 45.980469 41.921875 45.707031 C 41.929688 45.160156 41.898438 44.609375 41.859375 44.050781 L 41.734375 42.359375 C 41.652344 41.230469 41.574219 40.097656 41.511719 38.96875 C 41.382812 36.707031 41.277344 34.441406 41.257812 32.171875 " fill-opacity="1" fill-rule="nonzero"/></g><path fill="#b388ff" d="M 46.726562 36.921875 L 46.699219 37.363281 C 46.695312 37.511719 46.691406 37.65625 46.695312 37.804688 C 46.699219 37.949219 46.699219 38.097656 46.710938 38.242188 C 46.722656 38.390625 46.726562 38.535156 46.746094 38.679688 C 46.800781 39.265625 46.898438 39.839844 47.003906 40.421875 C 47.105469 41 47.21875 41.582031 47.308594 42.171875 C 47.398438 42.761719 47.464844 43.363281 47.472656 43.972656 C 47.484375 44.582031 47.441406 45.183594 47.386719 45.777344 C 47.332031 46.371094 47.261719 46.957031 47.207031 47.539062 C 47.179688 47.828125 47.15625 48.117188 47.136719 48.402344 C 47.121094 48.691406 47.109375 48.976562 47.117188 49.261719 C 47.117188 49.832031 47.164062 50.40625 47.226562 50.984375 C 47.289062 51.558594 47.375 52.140625 47.460938 52.722656 C 47.542969 53.308594 47.628906 53.898438 47.6875 54.492188 C 47.808594 55.683594 47.851562 56.878906 47.828125 58.070312 C 47.808594 59.261719 47.730469 60.445312 47.617188 61.625 C 47.558594 62.214844 47.496094 62.804688 47.421875 63.390625 L 47.304688 64.269531 C 47.265625 64.5625 47.226562 64.855469 47.179688 65.148438 C 47.179688 62.78125 47.261719 60.421875 47.171875 58.078125 C 47.15625 57.492188 47.117188 56.90625 47.078125 56.324219 C 47.050781 56.035156 47.03125 55.742188 47 55.453125 C 46.984375 55.308594 46.972656 55.164062 46.953125 55.019531 L 46.902344 54.585938 C 46.828125 54.007812 46.738281 53.429688 46.644531 52.84375 C 46.554688 52.261719 46.46875 51.671875 46.398438 51.074219 C 46.335938 50.476562 46.289062 49.875 46.292969 49.261719 C 46.296875 48.652344 46.347656 48.046875 46.421875 47.453125 C 46.492188 46.859375 46.582031 46.273438 46.660156 45.695312 C 46.695312 45.40625 46.734375 45.117188 46.761719 44.828125 C 46.777344 44.683594 46.785156 44.542969 46.796875 44.398438 C 46.804688 44.253906 46.816406 44.109375 46.820312 43.96875 C 46.867188 42.824219 46.707031 41.65625 46.597656 40.476562 C 46.546875 39.882812 46.503906 39.289062 46.515625 38.691406 C 46.515625 38.539062 46.527344 38.390625 46.53125 38.242188 C 46.539062 38.09375 46.554688 37.945312 46.570312 37.796875 C 46.585938 37.648438 46.613281 37.503906 46.632812 37.355469 C 46.660156 37.210938 46.695312 37.0625 46.726562 36.921875 " fill-opacity="1" fill-rule="nonzero"/></svg>